<svg width="750" height="1720" viewBox="0 0 750 1720" fill="none" xmlns="http://www.w3.org/2000/svg">
<g id="Gestione SDD" clip-path="url(#clip0_721_7556)">
<rect width="375" height="860" transform="scale(2)" fill="white"/>
<path id="Con questa operazion Copy" d="M34.8182 340H48.4545V337.5H37.6364V316.727H34.8182V340ZM57.5909 340.409C60.6364 340.409 62.2273 338.773 62.7727 337.636H62.9091V340H65.5909V328.5C65.5909 322.955 61.3636 322.318 59.1364 322.318C56.5 322.318 53.5 323.227 52.1364 326.409L54.6818 327.318C55.2727 326.045 56.6705 324.682 59.2273 324.682C61.6932 324.682 62.9091 325.989 62.9091 328.227V328.318C62.9091 329.614 61.5909 329.5 58.4091 329.909C55.1705 330.33 51.6364 331.045 51.6364 335.045C51.6364 338.455 54.2727 340.409 57.5909 340.409ZM58 338C55.8636 338 54.3182 337.045 54.3182 335.182C54.3182 333.136 56.1818 332.5 58.2727 332.227C59.4091 332.091 62.4545 331.773 62.9091 331.227V333.682C62.9091 335.864 61.1818 338 58 338ZM87.0767 322.545H83.3494V318.364H80.6676V322.545H78.0312V324.818H80.6676V335.727C80.6676 338.773 83.1222 340.227 85.3949 340.227C86.3949 340.227 87.0312 340.045 87.3949 339.909L86.8494 337.5C86.6222 337.545 86.2585 337.636 85.6676 337.636C84.4858 337.636 83.3494 337.273 83.3494 335V324.818H87.0767V322.545ZM102.111 332.864C102.111 336.136 99.6108 337.636 97.6108 337.636C95.3835 337.636 93.7926 336 93.7926 333.455V322.545H91.1108V333.636C91.1108 338.091 93.4744 340.227 96.7472 340.227C99.3835 340.227 101.111 338.818 101.929 337.045H102.111V340H104.793V322.545H102.111V332.864ZM114.841 340.409C117.886 340.409 119.477 338.773 120.023 337.636H120.159V340H122.841V328.5C122.841 322.955 118.614 322.318 116.386 322.318C113.75 322.318 110.75 323.227 109.386 326.409L111.932 327.318C112.523 326.045 113.92 324.682 116.477 324.682C118.943 324.682 120.159 325.989 120.159 328.227V328.318C120.159 329.614 118.841 329.5 115.659 329.909C112.42 330.33 108.886 331.045 108.886 335.045C108.886 338.455 111.523 340.409 114.841 340.409ZM115.25 338C113.114 338 111.568 337.045 111.568 335.182C111.568 333.136 113.432 332.5 115.523 332.227C116.659 332.091 119.705 331.773 120.159 331.227V333.682C120.159 335.864 118.432 338 115.25 338ZM136.736 340H139.418V328.955C139.418 326.591 141.281 324.864 143.827 324.864C144.543 324.864 145.281 325 145.463 325.045V322.318C145.156 322.295 144.452 322.273 144.054 322.273C141.963 322.273 140.145 323.455 139.509 325.182H139.327V322.545H136.736V340ZM148.642 340H151.324V322.545H148.642V340ZM150.006 319.636C151.051 319.636 151.915 318.818 151.915 317.818C151.915 316.818 151.051 316 150.006 316C148.96 316 148.097 316.818 148.097 317.818C148.097 318.818 148.96 319.636 150.006 319.636ZM163.327 340.364C167.19 340.364 169.736 338 170.19 334.909H167.509C167.009 336.818 165.418 337.955 163.327 337.955C160.145 337.955 158.099 335.318 158.099 331.273C158.099 327.318 160.19 324.727 163.327 324.727C165.69 324.727 167.099 326.182 167.509 327.773H170.19C169.736 324.5 166.963 322.318 163.281 322.318C158.554 322.318 155.418 326.045 155.418 331.364C155.418 336.591 158.418 340.364 163.327 340.364ZM176.793 329.5C176.793 326.455 178.736 324.727 181.384 324.727C183.906 324.727 185.429 326.318 185.429 329.091V340H188.111V328.909C188.111 324.42 185.724 322.318 182.156 322.318C179.406 322.318 177.838 323.466 177.02 325.273H176.793V316.727H174.111V340H176.793V329.5ZM193.017 340H195.699V322.545H193.017V340ZM194.381 319.636C195.426 319.636 196.29 318.818 196.29 317.818C196.29 316.818 195.426 316 194.381 316C193.335 316 192.472 316.818 192.472 317.818C192.472 318.818 193.335 319.636 194.381 319.636ZM207.929 340.364C211.474 340.364 214.065 338.591 214.884 335.955L212.293 335.227C211.611 337.045 210.031 337.955 207.929 337.955C204.781 337.955 202.611 335.92 202.486 332.182H215.156V331.045C215.156 324.545 211.293 322.318 207.656 322.318C202.929 322.318 199.793 326.045 199.793 331.409C199.793 336.773 202.884 340.364 207.929 340.364ZM202.486 329.864C202.668 327.148 204.588 324.727 207.656 324.727C210.565 324.727 212.429 326.909 212.429 329.864H202.486ZM231.599 326.455C230.759 323.977 228.872 322.318 225.418 322.318C221.736 322.318 219.009 324.409 219.009 327.364C219.009 329.773 220.44 331.386 223.645 332.136L226.554 332.818C228.315 333.227 229.145 334.068 229.145 335.273C229.145 336.773 227.554 338 225.054 338C222.861 338 221.486 337.057 221.009 335.182L218.463 335.818C219.088 338.784 221.531 340.364 225.099 340.364C229.156 340.364 231.918 338.148 231.918 335.136C231.918 332.705 230.395 331.17 227.281 330.409L224.69 329.773C222.622 329.261 221.69 328.568 221.69 327.227C221.69 325.727 223.281 324.636 225.418 324.636C227.759 324.636 228.724 325.932 229.19 327.136L231.599 326.455ZM243.545 322.545H239.818V318.364H237.136V322.545H234.5V324.818H237.136V335.727C237.136 338.773 239.591 340.227 241.864 340.227C242.864 340.227 243.5 340.045 243.864 339.909L243.318 337.5C243.091 337.545 242.727 337.636 242.136 337.636C240.955 337.636 239.818 337.273 239.818 335V324.818H243.545V322.545ZM252.716 340.409C255.761 340.409 257.352 338.773 257.898 337.636H258.034V340H260.716V328.5C260.716 322.955 256.489 322.318 254.261 322.318C251.625 322.318 248.625 323.227 247.261 326.409L249.807 327.318C250.398 326.045 251.795 324.682 254.352 324.682C256.818 324.682 258.034 325.989 258.034 328.227V328.318C258.034 329.614 256.716 329.5 253.534 329.909C250.295 330.33 246.761 331.045 246.761 335.045C246.761 338.455 249.398 340.409 252.716 340.409ZM253.125 338C250.989 338 249.443 337.045 249.443 335.182C249.443 333.136 251.307 332.5 253.398 332.227C254.534 332.091 257.58 331.773 258.034 331.227V333.682C258.034 335.864 256.307 338 253.125 338ZM274.611 346.545H277.293V337.318H277.52C278.111 338.273 279.247 340.364 282.611 340.364C286.974 340.364 290.02 336.864 290.02 331.318C290.02 325.818 286.974 322.318 282.565 322.318C279.156 322.318 278.111 324.409 277.52 325.318H277.202V322.545H274.611V346.545ZM277.247 331.273C277.247 327.364 278.974 324.727 282.247 324.727C285.656 324.727 287.338 327.591 287.338 331.273C287.338 335 285.611 337.955 282.247 337.955C279.02 337.955 277.247 335.227 277.247 331.273ZM301.429 340.364C304.974 340.364 307.565 338.591 308.384 335.955L305.793 335.227C305.111 337.045 303.531 337.955 301.429 337.955C298.281 337.955 296.111 335.92 295.986 332.182H308.656V331.045C308.656 324.545 304.793 322.318 301.156 322.318C296.429 322.318 293.293 326.045 293.293 331.409C293.293 336.773 296.384 340.364 301.429 340.364ZM295.986 329.864C296.168 327.148 298.088 324.727 301.156 324.727C304.065 324.727 305.929 326.909 305.929 329.864H295.986ZM312.736 340H315.418V328.955C315.418 326.591 317.281 324.864 319.827 324.864C320.543 324.864 321.281 325 321.463 325.045V322.318C321.156 322.295 320.452 322.273 320.054 322.273C317.963 322.273 316.145 323.455 315.509 325.182H315.327V322.545H312.736V340ZM336.324 316.727H333.642V340H336.324V316.727ZM346.372 340.409C349.418 340.409 351.009 338.773 351.554 337.636H351.69V340H354.372V328.5C354.372 322.955 350.145 322.318 347.918 322.318C345.281 322.318 342.281 323.227 340.918 326.409L343.463 327.318C344.054 326.045 345.452 324.682 348.009 324.682C350.474 324.682 351.69 325.989 351.69 328.227V328.318C351.69 329.614 350.372 329.5 347.19 329.909C343.952 330.33 340.418 331.045 340.418 335.045C340.418 338.455 343.054 340.409 346.372 340.409ZM346.781 338C344.645 338 343.099 337.045 343.099 335.182C343.099 333.136 344.963 332.5 347.054 332.227C348.19 332.091 351.236 331.773 351.69 331.227V333.682C351.69 335.864 349.963 338 346.781 338ZM368.267 340H370.949V328.955C370.949 326.591 372.812 324.864 375.358 324.864C376.074 324.864 376.812 325 376.994 325.045V322.318C376.688 322.295 375.983 322.273 375.585 322.273C373.494 322.273 371.676 323.455 371.04 325.182H370.858V322.545H368.267V340ZM386.96 340.364C390.506 340.364 393.097 338.591 393.915 335.955L391.324 335.227C390.642 337.045 389.062 337.955 386.96 337.955C383.812 337.955 381.642 335.92 381.517 332.182H394.188V331.045C394.188 324.545 390.324 322.318 386.688 322.318C381.96 322.318 378.824 326.045 378.824 331.409C378.824 336.773 381.915 340.364 386.96 340.364ZM381.517 329.864C381.699 327.148 383.619 324.727 386.688 324.727C389.597 324.727 391.46 326.909 391.46 329.864H381.517ZM412.009 322.545H409.099L404.281 336.455H404.099L399.281 322.545H396.372L402.827 340H405.554L412.009 322.545ZM422.014 340.364C426.741 340.364 429.923 336.773 429.923 331.364C429.923 325.909 426.741 322.318 422.014 322.318C417.287 322.318 414.105 325.909 414.105 331.364C414.105 336.773 417.287 340.364 422.014 340.364ZM422.014 337.955C418.423 337.955 416.787 334.864 416.787 331.364C416.787 327.864 418.423 324.727 422.014 324.727C425.605 324.727 427.241 327.864 427.241 331.364C427.241 334.864 425.605 337.955 422.014 337.955ZM441.108 340.364C444.972 340.364 447.517 338 447.972 334.909H445.29C444.79 336.818 443.199 337.955 441.108 337.955C437.926 337.955 435.881 335.318 435.881 331.273C435.881 327.318 437.972 324.727 441.108 324.727C443.472 324.727 444.881 326.182 445.29 327.773H447.972C447.517 324.5 444.744 322.318 441.062 322.318C436.335 322.318 433.199 326.045 433.199 331.364C433.199 336.591 436.199 340.364 441.108 340.364ZM457.028 340.409C460.074 340.409 461.665 338.773 462.21 337.636H462.347V340H465.028V328.5C465.028 322.955 460.801 322.318 458.574 322.318C455.938 322.318 452.938 323.227 451.574 326.409L454.119 327.318C454.71 326.045 456.108 324.682 458.665 324.682C461.131 324.682 462.347 325.989 462.347 328.227V328.318C462.347 329.614 461.028 329.5 457.847 329.909C454.608 330.33 451.074 331.045 451.074 335.045C451.074 338.455 453.71 340.409 457.028 340.409ZM457.438 338C455.301 338 453.756 337.045 453.756 335.182C453.756 333.136 455.619 332.5 457.71 332.227C458.847 332.091 461.892 331.773 462.347 331.227V333.682C462.347 335.864 460.619 338 457.438 338ZM485.514 340.364C488.878 340.364 490.014 338.273 490.605 337.318H490.923V340H493.514V316.727H490.832V325.318H490.605C490.014 324.409 488.969 322.318 485.56 322.318C481.151 322.318 478.105 325.818 478.105 331.318C478.105 336.864 481.151 340.364 485.514 340.364ZM485.878 337.955C482.514 337.955 480.787 335 480.787 331.273C480.787 327.591 482.469 324.727 485.878 324.727C489.151 324.727 490.878 327.364 490.878 331.273C490.878 335.227 489.105 337.955 485.878 337.955ZM506.116 340.364C509.662 340.364 512.253 338.591 513.071 335.955L510.48 335.227C509.798 337.045 508.219 337.955 506.116 337.955C502.969 337.955 500.798 335.92 500.673 332.182H513.344V331.045C513.344 324.545 509.48 322.318 505.844 322.318C501.116 322.318 497.98 326.045 497.98 331.409C497.98 336.773 501.071 340.364 506.116 340.364ZM500.673 329.864C500.855 327.148 502.776 324.727 505.844 324.727C508.753 324.727 510.616 326.909 510.616 329.864H500.673ZM520.105 316.727H517.423V340H520.105V316.727ZM527.699 316.727H525.017V340H527.699V316.727ZM534.974 316.727H532.429V318.818C532.429 320.5 531.611 321.955 530.656 323.318L532.111 324.5C533.929 323.045 534.974 320.636 534.974 318.773V316.727ZM551.608 322.545H554.335C554.21 319.034 550.972 316.409 546.472 316.409C542.017 316.409 538.517 319 538.517 322.909C538.517 326.045 540.79 327.909 544.426 328.955L547.29 329.773C549.744 330.455 551.926 331.318 551.926 333.636C551.926 336.182 549.472 337.864 546.244 337.864C543.472 337.864 541.017 336.636 540.79 334H537.881C538.153 337.818 541.244 340.409 546.244 340.409C551.608 340.409 554.653 337.455 554.653 333.682C554.653 329.318 550.517 327.909 548.108 327.273L545.744 326.636C544.017 326.182 541.244 325.273 541.244 322.773C541.244 320.545 543.29 318.909 546.381 318.909C549.199 318.909 551.335 320.25 551.608 322.545ZM566.469 340C573.56 340 577.56 335.591 577.56 328.318C577.56 321.091 573.56 316.727 566.787 316.727H559.287V340H566.469ZM562.105 337.5V319.227H566.605C572.06 319.227 574.832 322.682 574.832 328.318C574.832 334 572.06 337.5 566.287 337.5H562.105ZM589.469 340C596.56 340 600.56 335.591 600.56 328.318C600.56 321.091 596.56 316.727 589.787 316.727H582.287V340H589.469ZM585.105 337.5V319.227H589.605C595.06 319.227 597.832 322.682 597.832 328.318C597.832 334 595.06 337.5 589.287 337.5H585.105ZM621.241 340.364C624.787 340.364 627.378 338.591 628.196 335.955L625.605 335.227C624.923 337.045 623.344 337.955 621.241 337.955C618.094 337.955 615.923 335.92 615.798 332.182H628.469V331.045C628.469 324.545 624.605 322.318 620.969 322.318C616.241 322.318 613.105 326.045 613.105 331.409C613.105 336.773 616.196 340.364 621.241 340.364ZM615.798 329.864C615.98 327.148 617.901 324.727 620.969 324.727C623.878 324.727 625.741 326.909 625.741 329.864H615.798ZM619.696 320.182H622.06L619.287 314.909H616.151L619.696 320.182ZM641.548 340H644.23V322.545H641.548V340ZM642.912 319.636C643.957 319.636 644.821 318.818 644.821 317.818C644.821 316.818 643.957 316 642.912 316C641.866 316 641.003 316.818 641.003 317.818C641.003 318.818 641.866 319.636 642.912 319.636ZM651.824 329.5C651.824 326.455 653.71 324.727 656.278 324.727C658.767 324.727 660.278 326.352 660.278 329.091V340H662.96V328.909C662.96 324.455 660.585 322.318 657.051 322.318C654.415 322.318 652.778 323.5 651.96 325.273H651.733V322.545H649.142V340H651.824V329.5ZM42.2273 370.545H38.3182V368.773C38.3182 367.045 39.0455 366.136 40.8182 366.136C41.5909 366.136 42.0455 366.318 42.3182 366.409L43.0909 364.091C42.6818 363.909 41.8636 363.636 40.5455 363.636C38.0455 363.636 35.6364 365.136 35.6364 368.136V370.545H32.8182V372.818H35.6364V388H38.3182V372.818H42.2273V370.545ZM50.6222 388.409C53.6676 388.409 55.2585 386.773 55.804 385.636H55.9403V388H58.6222V376.5C58.6222 370.955 54.3949 370.318 52.1676 370.318C49.5312 370.318 46.5312 371.227 45.1676 374.409L47.7131 375.318C48.304 374.045 49.7017 372.682 52.2585 372.682C54.7244 372.682 55.9403 373.989 55.9403 376.227V376.318C55.9403 377.614 54.6222 377.5 51.4403 377.909C48.2017 378.33 44.6676 379.045 44.6676 383.045C44.6676 386.455 47.304 388.409 50.6222 388.409ZM51.0312 386C48.8949 386 47.3494 385.045 47.3494 383.182C47.3494 381.136 49.2131 380.5 51.304 380.227C52.4403 380.091 55.4858 379.773 55.9403 379.227V381.682C55.9403 383.864 54.2131 386 51.0312 386ZM75.8807 374.455C75.0398 371.977 73.1534 370.318 69.6989 370.318C66.017 370.318 63.2898 372.409 63.2898 375.364C63.2898 377.773 64.7216 379.386 67.9261 380.136L70.8352 380.818C72.5966 381.227 73.4261 382.068 73.4261 383.273C73.4261 384.773 71.8352 386 69.3352 386C67.142 386 65.767 385.057 65.2898 383.182L62.7443 383.818C63.3693 386.784 65.8125 388.364 69.3807 388.364C73.4375 388.364 76.1989 386.148 76.1989 383.136C76.1989 380.705 74.6761 379.17 71.5625 378.409L68.9716 377.773C66.9034 377.261 65.9716 376.568 65.9716 375.227C65.9716 373.727 67.5625 372.636 69.6989 372.636C72.0398 372.636 73.0057 373.932 73.4716 375.136L75.8807 374.455ZM87.554 388.364C91.0994 388.364 93.6903 386.591 94.5085 383.955L91.9176 383.227C91.2358 385.045 89.6562 385.955 87.554 385.955C84.4062 385.955 82.2358 383.92 82.1108 380.182H94.7812V379.045C94.7812 372.545 90.9176 370.318 87.2812 370.318C82.554 370.318 79.4176 374.045 79.4176 379.409C79.4176 384.773 82.5085 388.364 87.554 388.364ZM82.1108 377.864C82.2926 375.148 84.2131 372.727 87.2812 372.727C90.1903 372.727 92.054 374.909 92.054 377.864H82.1108ZM114.452 388.364C117.815 388.364 118.952 386.273 119.543 385.318H119.861V388H122.452V364.727H119.77V373.318H119.543C118.952 372.409 117.906 370.318 114.497 370.318C110.088 370.318 107.043 373.818 107.043 379.318C107.043 384.864 110.088 388.364 114.452 388.364ZM114.815 385.955C111.452 385.955 109.724 383 109.724 379.273C109.724 375.591 111.406 372.727 114.815 372.727C118.088 372.727 119.815 375.364 119.815 379.273C119.815 383.227 118.043 385.955 114.815 385.955ZM127.736 388H130.418V370.545H127.736V388ZM129.099 367.636C130.145 367.636 131.009 366.818 131.009 365.818C131.009 364.818 130.145 364 129.099 364C128.054 364 127.19 364.818 127.19 365.818C127.19 366.818 128.054 367.636 129.099 367.636ZM147.011 364.727H144.33V388H147.011V364.727ZM157.06 388.409C160.105 388.409 161.696 386.773 162.241 385.636H162.378V388H165.06V376.5C165.06 370.955 160.832 370.318 158.605 370.318C155.969 370.318 152.969 371.227 151.605 374.409L154.151 375.318C154.741 374.045 156.139 372.682 158.696 372.682C161.162 372.682 162.378 373.989 162.378 376.227V376.318C162.378 377.614 161.06 377.5 157.878 377.909C154.639 378.33 151.105 379.045 151.105 383.045C151.105 386.455 153.741 388.409 157.06 388.409ZM157.469 386C155.332 386 153.787 385.045 153.787 383.182C153.787 381.136 155.651 380.5 157.741 380.227C158.878 380.091 161.923 379.773 162.378 379.227V381.682C162.378 383.864 160.651 386 157.469 386ZM183.602 370.545H180.693L175.875 384.455H175.693L170.875 370.545H167.966L174.42 388H177.148L183.602 370.545ZM193.608 388.364C198.335 388.364 201.517 384.773 201.517 379.364C201.517 373.909 198.335 370.318 193.608 370.318C188.881 370.318 185.699 373.909 185.699 379.364C185.699 384.773 188.881 388.364 193.608 388.364ZM193.608 385.955C190.017 385.955 188.381 382.864 188.381 379.364C188.381 375.864 190.017 372.727 193.608 372.727C197.199 372.727 198.835 375.864 198.835 379.364C198.835 382.864 197.199 385.955 193.608 385.955ZM205.611 388H208.293V376.955C208.293 374.591 210.156 372.864 212.702 372.864C213.418 372.864 214.156 373 214.338 373.045V370.318C214.031 370.295 213.327 370.273 212.929 370.273C210.838 370.273 209.02 371.455 208.384 373.182H208.202V370.545H205.611V388ZM222.653 388.409C225.699 388.409 227.29 386.773 227.835 385.636H227.972V388H230.653V376.5C230.653 370.955 226.426 370.318 224.199 370.318C221.562 370.318 218.562 371.227 217.199 374.409L219.744 375.318C220.335 374.045 221.733 372.682 224.29 372.682C226.756 372.682 227.972 373.989 227.972 376.227V376.318C227.972 377.614 226.653 377.5 223.472 377.909C220.233 378.33 216.699 379.045 216.699 383.045C216.699 386.455 219.335 388.409 222.653 388.409ZM223.062 386C220.926 386 219.381 385.045 219.381 383.182C219.381 381.136 221.244 380.5 223.335 380.227C224.472 380.091 227.517 379.773 227.972 379.227V381.682C227.972 383.864 226.244 386 223.062 386ZM235.048 388H248.73V385.5H238.776V385.318L248.412 372.682V370.545H235.366V373.045H244.957V373.227L235.048 385.955V388ZM252.861 388H255.543V370.545H252.861V388ZM254.224 367.636C255.27 367.636 256.134 366.818 256.134 365.818C256.134 364.818 255.27 364 254.224 364C253.179 364 252.315 364.818 252.315 365.818C252.315 366.818 253.179 367.636 254.224 367.636ZM267.545 388.364C272.273 388.364 275.455 384.773 275.455 379.364C275.455 373.909 272.273 370.318 267.545 370.318C262.818 370.318 259.636 373.909 259.636 379.364C259.636 384.773 262.818 388.364 267.545 388.364ZM267.545 385.955C263.955 385.955 262.318 382.864 262.318 379.364C262.318 375.864 263.955 372.727 267.545 372.727C271.136 372.727 272.773 375.864 272.773 379.364C272.773 382.864 271.136 385.955 267.545 385.955ZM282.23 377.5C282.23 374.455 284.116 372.727 286.685 372.727C289.173 372.727 290.685 374.352 290.685 377.091V388H293.366V376.909C293.366 372.455 290.991 370.318 287.457 370.318C284.821 370.318 283.185 371.5 282.366 373.273H282.139V370.545H279.548V388H282.23V377.5ZM305.585 388.364C309.131 388.364 311.722 386.591 312.54 383.955L309.949 383.227C309.267 385.045 307.688 385.955 305.585 385.955C302.438 385.955 300.267 383.92 300.142 380.182H312.812V379.045C312.812 372.545 308.949 370.318 305.312 370.318C300.585 370.318 297.449 374.045 297.449 379.409C297.449 384.773 300.54 388.364 305.585 388.364ZM300.142 377.864C300.324 375.148 302.244 372.727 305.312 372.727C308.222 372.727 310.085 374.909 310.085 377.864H300.142ZM318.847 388.182C319.972 388.182 320.892 387.261 320.892 386.136C320.892 385.011 319.972 384.091 318.847 384.091C317.722 384.091 316.801 385.011 316.801 386.136C316.801 387.261 317.722 388.182 318.847 388.182ZM335.068 388H337.886V378.909H342.977C343.182 378.909 343.375 378.909 343.568 378.898L348.477 388H351.75L346.489 378.386C349.455 377.375 350.841 374.955 350.841 371.864C350.841 367.75 348.386 364.727 342.932 364.727H335.068V388ZM337.886 376.364V367.227H342.841C346.614 367.227 348.068 369.068 348.068 371.864C348.068 374.659 346.614 376.364 342.886 376.364H337.886ZM355.173 388H357.855V370.545H355.173V388ZM356.537 367.636C357.582 367.636 358.446 366.818 358.446 365.818C358.446 364.818 357.582 364 356.537 364C355.491 364 354.628 364.818 354.628 365.818C354.628 366.818 355.491 367.636 356.537 367.636ZM369.858 388.364C373.722 388.364 376.267 386 376.722 382.909H374.04C373.54 384.818 371.949 385.955 369.858 385.955C366.676 385.955 364.631 383.318 364.631 379.273C364.631 375.318 366.722 372.727 369.858 372.727C372.222 372.727 373.631 374.182 374.04 375.773H376.722C376.267 372.5 373.494 370.318 369.812 370.318C365.085 370.318 361.949 374.045 361.949 379.364C361.949 384.591 364.949 388.364 369.858 388.364ZM387.96 388.364C391.506 388.364 394.097 386.591 394.915 383.955L392.324 383.227C391.642 385.045 390.062 385.955 387.96 385.955C384.812 385.955 382.642 383.92 382.517 380.182H395.188V379.045C395.188 372.545 391.324 370.318 387.688 370.318C382.96 370.318 379.824 374.045 379.824 379.409C379.824 384.773 382.915 388.364 387.96 388.364ZM382.517 377.864C382.699 375.148 384.619 372.727 387.688 372.727C390.597 372.727 392.46 374.909 392.46 377.864H382.517ZM413.009 370.545H410.099L405.281 384.455H405.099L400.281 370.545H397.372L403.827 388H406.554L413.009 370.545ZM423.241 388.364C426.787 388.364 429.378 386.591 430.196 383.955L427.605 383.227C426.923 385.045 425.344 385.955 423.241 385.955C420.094 385.955 417.923 383.92 417.798 380.182H430.469V379.045C430.469 372.545 426.605 370.318 422.969 370.318C418.241 370.318 415.105 374.045 415.105 379.409C415.105 384.773 418.196 388.364 423.241 388.364ZM417.798 377.864C417.98 375.148 419.901 372.727 422.969 372.727C425.878 372.727 427.741 374.909 427.741 377.864H417.798ZM434.548 388H437.23V376.955C437.23 374.591 439.094 372.864 441.639 372.864C442.355 372.864 443.094 373 443.276 373.045V370.318C442.969 370.295 442.264 370.273 441.866 370.273C439.776 370.273 437.957 371.455 437.321 373.182H437.139V370.545H434.548V388ZM451.591 388.409C454.636 388.409 456.227 386.773 456.773 385.636H456.909V388H459.591V376.5C459.591 370.955 455.364 370.318 453.136 370.318C450.5 370.318 447.5 371.227 446.136 374.409L448.682 375.318C449.273 374.045 450.67 372.682 453.227 372.682C455.693 372.682 456.909 373.989 456.909 376.227V376.318C456.909 377.614 455.591 377.5 452.409 377.909C449.17 378.33 445.636 379.045 445.636 383.045C445.636 386.455 448.273 388.409 451.591 388.409ZM452 386C449.864 386 448.318 385.045 448.318 383.182C448.318 381.136 450.182 380.5 452.273 380.227C453.409 380.091 456.455 379.773 456.909 379.227V381.682C456.909 383.864 455.182 386 452 386ZM464.486 388H467.168V370.545H464.486V388ZM465.849 367.636C466.895 367.636 467.759 366.818 467.759 365.818C467.759 364.818 466.895 364 465.849 364C464.804 364 463.94 364.818 463.94 365.818C463.94 366.818 464.804 367.636 465.849 367.636ZM492.08 380.864C492.08 384.136 489.58 385.636 487.58 385.636C485.352 385.636 483.761 384 483.761 381.455V370.545H481.08V381.636C481.08 386.091 483.443 388.227 486.716 388.227C489.352 388.227 491.08 386.818 491.898 385.045H492.08V388H494.761V370.545H492.08V380.864ZM502.355 377.5C502.355 374.455 504.241 372.727 506.81 372.727C509.298 372.727 510.81 374.352 510.81 377.091V388H513.491V376.909C513.491 372.455 511.116 370.318 507.582 370.318C504.946 370.318 503.31 371.5 502.491 373.273H502.264V370.545H499.673V388H502.355V377.5ZM523.528 388.409C526.574 388.409 528.165 386.773 528.71 385.636H528.847V388H531.528V376.5C531.528 370.955 527.301 370.318 525.074 370.318C522.438 370.318 519.438 371.227 518.074 374.409L520.619 375.318C521.21 374.045 522.608 372.682 525.165 372.682C527.631 372.682 528.847 373.989 528.847 376.227V376.318C528.847 377.614 527.528 377.5 524.347 377.909C521.108 378.33 517.574 379.045 517.574 383.045C517.574 386.455 520.21 388.409 523.528 388.409ZM523.938 386C521.801 386 520.256 385.045 520.256 383.182C520.256 381.136 522.119 380.5 524.21 380.227C525.347 380.091 528.392 379.773 528.847 379.227V381.682C528.847 383.864 527.119 386 523.938 386ZM545.423 388H548.105V377.091C548.105 374.534 549.969 372.727 552.06 372.727C554.094 372.727 555.514 374.057 555.514 376.045V388H558.241V376.636C558.241 374.386 559.651 372.727 562.105 372.727C564.014 372.727 565.651 373.739 565.651 376.318V388H568.332V376.318C568.332 372.216 566.128 370.318 563.014 370.318C560.514 370.318 558.685 371.466 557.787 373.273H557.605C556.741 371.409 555.219 370.318 552.923 370.318C550.651 370.318 548.969 371.409 548.241 373.273H548.014V370.545H545.423V388ZM578.372 388.409C581.418 388.409 583.009 386.773 583.554 385.636H583.69V388H586.372V376.5C586.372 370.955 582.145 370.318 579.918 370.318C577.281 370.318 574.281 371.227 572.918 374.409L575.463 375.318C576.054 374.045 577.452 372.682 580.009 372.682C582.474 372.682 583.69 373.989 583.69 376.227V376.318C583.69 377.614 582.372 377.5 579.19 377.909C575.952 378.33 572.418 379.045 572.418 383.045C572.418 386.455 575.054 388.409 578.372 388.409ZM578.781 386C576.645 386 575.099 385.045 575.099 383.182C575.099 381.136 576.963 380.5 579.054 380.227C580.19 380.091 583.236 379.773 583.69 379.227V381.682C583.69 383.864 581.963 386 578.781 386ZM591.267 388H593.949V370.545H591.267V388ZM592.631 367.636C593.676 367.636 594.54 366.818 594.54 365.818C594.54 364.818 593.676 364 592.631 364C591.585 364 590.722 364.818 590.722 365.818C590.722 366.818 591.585 367.636 592.631 367.636ZM601.543 364.727H598.861V388H601.543V364.727ZM618.136 377.5C618.136 374.455 620.023 372.727 622.591 372.727C625.08 372.727 626.591 374.352 626.591 377.091V388H629.273V376.909C629.273 372.455 626.898 370.318 623.364 370.318C620.727 370.318 619.091 371.5 618.273 373.273H618.045V370.545H615.455V388H618.136V377.5ZM641.264 388.364C645.991 388.364 649.173 384.773 649.173 379.364C649.173 373.909 645.991 370.318 641.264 370.318C636.537 370.318 633.355 373.909 633.355 379.364C633.355 384.773 636.537 388.364 641.264 388.364ZM641.264 385.955C637.673 385.955 636.037 382.864 636.037 379.364C636.037 375.864 637.673 372.727 641.264 372.727C644.855 372.727 646.491 375.864 646.491 379.364C646.491 382.864 644.855 385.955 641.264 385.955ZM655.949 377.5C655.949 374.455 657.835 372.727 660.403 372.727C662.892 372.727 664.403 374.352 664.403 377.091V388H667.085V376.909C667.085 372.455 664.71 370.318 661.176 370.318C658.54 370.318 656.903 371.5 656.085 373.273H655.858V370.545H653.267V388H655.949V377.5ZM39.5909 436.409C42.6364 436.409 44.2273 434.773 44.7727 433.636H44.9091V436H47.5909V424.5C47.5909 418.955 43.3636 418.318 41.1364 418.318C38.5 418.318 35.5 419.227 34.1364 422.409L36.6818 423.318C37.2727 422.045 38.6705 420.682 41.2273 420.682C43.6932 420.682 44.9091 421.989 44.9091 424.227V424.318C44.9091 425.614 43.5909 425.5 40.4091 425.909C37.1705 426.33 33.6364 427.045 33.6364 431.045C33.6364 434.455 36.2727 436.409 39.5909 436.409ZM40 434C37.8636 434 36.3182 433.045 36.3182 431.182C36.3182 429.136 38.1818 428.5 40.2727 428.227C41.4091 428.091 44.4545 427.773 44.9091 427.227V429.682C44.9091 431.864 43.1818 434 40 434ZM52.4858 442.545H55.1676V433.318H55.3949C55.9858 434.273 57.1222 436.364 60.4858 436.364C64.8494 436.364 67.8949 432.864 67.8949 427.318C67.8949 421.818 64.8494 418.318 60.4403 418.318C57.0312 418.318 55.9858 420.409 55.3949 421.318H55.0767V418.545H52.4858V442.545ZM55.1222 427.273C55.1222 423.364 56.8494 420.727 60.1222 420.727C63.5312 420.727 65.2131 423.591 65.2131 427.273C65.2131 431 63.4858 433.955 60.1222 433.955C56.8949 433.955 55.1222 431.227 55.1222 427.273ZM71.9858 442.545H74.6676V433.318H74.8949C75.4858 434.273 76.6222 436.364 79.9858 436.364C84.3494 436.364 87.3949 432.864 87.3949 427.318C87.3949 421.818 84.3494 418.318 79.9403 418.318C76.5312 418.318 75.4858 420.409 74.8949 421.318H74.5767V418.545H71.9858V442.545ZM74.6222 427.273C74.6222 423.364 76.3494 420.727 79.6222 420.727C83.0312 420.727 84.7131 423.591 84.7131 427.273C84.7131 431 82.9858 433.955 79.6222 433.955C76.3949 433.955 74.6222 431.227 74.6222 427.273ZM98.804 436.364C102.349 436.364 104.94 434.591 105.759 431.955L103.168 431.227C102.486 433.045 100.906 433.955 98.804 433.955C95.6562 433.955 93.4858 431.92 93.3608 428.182H106.031V427.045C106.031 420.545 102.168 418.318 98.5312 418.318C93.804 418.318 90.6676 422.045 90.6676 427.409C90.6676 432.773 93.7585 436.364 98.804 436.364ZM93.3608 425.864C93.5426 423.148 95.4631 420.727 98.5312 420.727C101.44 420.727 103.304 422.909 103.304 425.864H93.3608ZM112.793 425.5C112.793 422.455 114.679 420.727 117.247 420.727C119.736 420.727 121.247 422.352 121.247 425.091V436H123.929V424.909C123.929 420.455 121.554 418.318 118.02 418.318C115.384 418.318 113.747 419.5 112.929 421.273H112.702V418.545H110.111V436H112.793V425.5ZM133.966 436.409C137.011 436.409 138.602 434.773 139.148 433.636H139.284V436H141.966V424.5C141.966 418.955 137.739 418.318 135.511 418.318C132.875 418.318 129.875 419.227 128.511 422.409L131.057 423.318C131.648 422.045 133.045 420.682 135.602 420.682C138.068 420.682 139.284 421.989 139.284 424.227V424.318C139.284 425.614 137.966 425.5 134.784 425.909C131.545 426.33 128.011 427.045 128.011 431.045C128.011 434.455 130.648 436.409 133.966 436.409ZM134.375 434C132.239 434 130.693 433.045 130.693 431.182C130.693 429.136 132.557 428.5 134.648 428.227C135.784 428.091 138.83 427.773 139.284 427.227V429.682C139.284 431.864 137.557 434 134.375 434ZM158.543 412.727H155.861V436H158.543V412.727ZM170.773 436.364C174.318 436.364 176.909 434.591 177.727 431.955L175.136 431.227C174.455 433.045 172.875 433.955 170.773 433.955C167.625 433.955 165.455 431.92 165.33 428.182H178V427.045C178 420.545 174.136 418.318 170.5 418.318C165.773 418.318 162.636 422.045 162.636 427.409C162.636 432.773 165.727 436.364 170.773 436.364ZM165.33 425.864C165.511 423.148 167.432 420.727 170.5 420.727C173.409 420.727 175.273 422.909 175.273 425.864H165.33ZM198.17 436.364C202.898 436.364 206.08 432.773 206.08 427.364C206.08 421.909 202.898 418.318 198.17 418.318C193.443 418.318 190.261 421.909 190.261 427.364C190.261 432.773 193.443 436.364 198.17 436.364ZM198.17 433.955C194.58 433.955 192.943 430.864 192.943 427.364C192.943 423.864 194.58 420.727 198.17 420.727C201.761 420.727 203.398 423.864 203.398 427.364C203.398 430.864 201.761 433.955 198.17 433.955ZM210.173 442.545H212.855V433.318H213.082C213.673 434.273 214.81 436.364 218.173 436.364C222.537 436.364 225.582 432.864 225.582 427.318C225.582 421.818 222.537 418.318 218.128 418.318C214.719 418.318 213.673 420.409 213.082 421.318H212.764V418.545H210.173V442.545ZM212.81 427.273C212.81 423.364 214.537 420.727 217.81 420.727C221.219 420.727 222.901 423.591 222.901 427.273C222.901 431 221.173 433.955 217.81 433.955C214.582 433.955 212.81 431.227 212.81 427.273ZM236.991 436.364C240.537 436.364 243.128 434.591 243.946 431.955L241.355 431.227C240.673 433.045 239.094 433.955 236.991 433.955C233.844 433.955 231.673 431.92 231.548 428.182H244.219V427.045C244.219 420.545 240.355 418.318 236.719 418.318C231.991 418.318 228.855 422.045 228.855 427.409C228.855 432.773 231.946 436.364 236.991 436.364ZM231.548 425.864C231.73 423.148 233.651 420.727 236.719 420.727C239.628 420.727 241.491 422.909 241.491 425.864H231.548ZM248.298 436H250.98V424.955C250.98 422.591 252.844 420.864 255.389 420.864C256.105 420.864 256.844 421 257.026 421.045V418.318C256.719 418.295 256.014 418.273 255.616 418.273C253.526 418.273 251.707 419.455 251.071 421.182H250.889V418.545H248.298V436ZM265.341 436.409C268.386 436.409 269.977 434.773 270.523 433.636H270.659V436H273.341V424.5C273.341 418.955 269.114 418.318 266.886 418.318C264.25 418.318 261.25 419.227 259.886 422.409L262.432 423.318C263.023 422.045 264.42 420.682 266.977 420.682C269.443 420.682 270.659 421.989 270.659 424.227V424.318C270.659 425.614 269.341 425.5 266.159 425.909C262.92 426.33 259.386 427.045 259.386 431.045C259.386 434.455 262.023 436.409 265.341 436.409ZM265.75 434C263.614 434 262.068 433.045 262.068 431.182C262.068 429.136 263.932 428.5 266.023 428.227C267.159 428.091 270.205 427.773 270.659 427.227V429.682C270.659 431.864 268.932 434 265.75 434ZM277.736 436H291.418V433.5H281.463V433.318L291.099 420.682V418.545H278.054V421.045H287.645V421.227L277.736 433.955V436ZM295.548 436H298.23V418.545H295.548V436ZM296.912 415.636C297.957 415.636 298.821 414.818 298.821 413.818C298.821 412.818 297.957 412 296.912 412C295.866 412 295.003 412.818 295.003 413.818C295.003 414.818 295.866 415.636 296.912 415.636ZM310.233 436.364C314.96 436.364 318.142 432.773 318.142 427.364C318.142 421.909 314.96 418.318 310.233 418.318C305.506 418.318 302.324 421.909 302.324 427.364C302.324 432.773 305.506 436.364 310.233 436.364ZM310.233 433.955C306.642 433.955 305.006 430.864 305.006 427.364C305.006 423.864 306.642 420.727 310.233 420.727C313.824 420.727 315.46 423.864 315.46 427.364C315.46 430.864 313.824 433.955 310.233 433.955ZM324.918 425.5C324.918 422.455 326.804 420.727 329.372 420.727C331.861 420.727 333.372 422.352 333.372 425.091V436H336.054V424.909C336.054 420.455 333.679 418.318 330.145 418.318C327.509 418.318 325.872 419.5 325.054 421.273H324.827V418.545H322.236V436H324.918V425.5ZM340.955 436H343.636V418.545H340.955V436ZM342.318 415.636C343.364 415.636 344.227 414.818 344.227 413.818C344.227 412.818 343.364 412 342.318 412C341.273 412 340.409 412.818 340.409 413.818C340.409 414.818 341.273 415.636 342.318 415.636ZM364.139 436.364C367.503 436.364 368.639 434.273 369.23 433.318H369.548V436H372.139V412.727H369.457V421.318H369.23C368.639 420.409 367.594 418.318 364.185 418.318C359.776 418.318 356.73 421.818 356.73 427.318C356.73 432.864 359.776 436.364 364.139 436.364ZM364.503 433.955C361.139 433.955 359.412 431 359.412 427.273C359.412 423.591 361.094 420.727 364.503 420.727C367.776 420.727 369.503 423.364 369.503 427.273C369.503 431.227 367.73 433.955 364.503 433.955ZM377.423 436H380.105V418.545H377.423V436ZM378.787 415.636C379.832 415.636 380.696 414.818 380.696 413.818C380.696 412.818 379.832 412 378.787 412C377.741 412 376.878 412.818 376.878 413.818C376.878 414.818 377.741 415.636 378.787 415.636ZM394.017 436H396.699V424.955C396.699 422.591 398.562 420.864 401.108 420.864C401.824 420.864 402.562 421 402.744 421.045V418.318C402.438 418.295 401.733 418.273 401.335 418.273C399.244 418.273 397.426 419.455 396.79 421.182H396.608V418.545H394.017V436ZM412.71 436.364C416.256 436.364 418.847 434.591 419.665 431.955L417.074 431.227C416.392 433.045 414.812 433.955 412.71 433.955C409.562 433.955 407.392 431.92 407.267 428.182H419.938V427.045C419.938 420.545 416.074 418.318 412.438 418.318C407.71 418.318 404.574 422.045 404.574 427.409C404.574 432.773 407.665 436.364 412.71 436.364ZM407.267 425.864C407.449 423.148 409.369 420.727 412.438 420.727C415.347 420.727 417.21 422.909 417.21 425.864H407.267ZM437.759 418.545H434.849L430.031 432.455H429.849L425.031 418.545H422.122L428.577 436H431.304L437.759 418.545ZM447.764 436.364C452.491 436.364 455.673 432.773 455.673 427.364C455.673 421.909 452.491 418.318 447.764 418.318C443.037 418.318 439.855 421.909 439.855 427.364C439.855 432.773 443.037 436.364 447.764 436.364ZM447.764 433.955C444.173 433.955 442.537 430.864 442.537 427.364C442.537 423.864 444.173 420.727 447.764 420.727C451.355 420.727 452.991 423.864 452.991 427.364C452.991 430.864 451.355 433.955 447.764 433.955ZM466.858 436.364C470.722 436.364 473.267 434 473.722 430.909H471.04C470.54 432.818 468.949 433.955 466.858 433.955C463.676 433.955 461.631 431.318 461.631 427.273C461.631 423.318 463.722 420.727 466.858 420.727C469.222 420.727 470.631 422.182 471.04 423.773H473.722C473.267 420.5 470.494 418.318 466.812 418.318C462.085 418.318 458.949 422.045 458.949 427.364C458.949 432.591 461.949 436.364 466.858 436.364ZM482.778 436.409C485.824 436.409 487.415 434.773 487.96 433.636H488.097V436H490.778V424.5C490.778 418.955 486.551 418.318 484.324 418.318C481.688 418.318 478.688 419.227 477.324 422.409L479.869 423.318C480.46 422.045 481.858 420.682 484.415 420.682C486.881 420.682 488.097 421.989 488.097 424.227V424.318C488.097 425.614 486.778 425.5 483.597 425.909C480.358 426.33 476.824 427.045 476.824 431.045C476.824 434.455 479.46 436.409 482.778 436.409ZM483.188 434C481.051 434 479.506 433.045 479.506 431.182C479.506 429.136 481.369 428.5 483.46 428.227C484.597 428.091 487.642 427.773 488.097 427.227V429.682C488.097 431.864 486.369 434 483.188 434ZM517.037 422.455C516.196 419.977 514.31 418.318 510.855 418.318C507.173 418.318 504.446 420.409 504.446 423.364C504.446 425.773 505.878 427.386 509.082 428.136L511.991 428.818C513.753 429.227 514.582 430.068 514.582 431.273C514.582 432.773 512.991 434 510.491 434C508.298 434 506.923 433.057 506.446 431.182L503.901 431.818C504.526 434.784 506.969 436.364 510.537 436.364C514.594 436.364 517.355 434.148 517.355 431.136C517.355 428.705 515.832 427.17 512.719 426.409L510.128 425.773C508.06 425.261 507.128 424.568 507.128 423.227C507.128 421.727 508.719 420.636 510.855 420.636C513.196 420.636 514.162 421.932 514.628 423.136L517.037 422.455ZM526.528 436.409C529.574 436.409 531.165 434.773 531.71 433.636H531.847V436H534.528V424.5C534.528 418.955 530.301 418.318 528.074 418.318C525.438 418.318 522.438 419.227 521.074 422.409L523.619 423.318C524.21 422.045 525.608 420.682 528.165 420.682C530.631 420.682 531.847 421.989 531.847 424.227V424.318C531.847 425.614 530.528 425.5 527.347 425.909C524.108 426.33 520.574 427.045 520.574 431.045C520.574 434.455 523.21 436.409 526.528 436.409ZM526.938 434C524.801 434 523.256 433.045 523.256 431.182C523.256 429.136 525.119 428.5 527.21 428.227C528.347 428.091 531.392 427.773 531.847 427.227V429.682C531.847 431.864 530.119 434 526.938 434ZM539.423 436H542.105V424.955C542.105 422.591 543.969 420.864 546.514 420.864C547.23 420.864 547.969 421 548.151 421.045V418.318C547.844 418.295 547.139 418.273 546.741 418.273C544.651 418.273 542.832 419.455 542.196 421.182H542.014V418.545H539.423V436ZM556.466 436.409C559.511 436.409 561.102 434.773 561.648 433.636H561.784V436H564.466V424.5C564.466 418.955 560.239 418.318 558.011 418.318C555.375 418.318 552.375 419.227 551.011 422.409L553.557 423.318C554.148 422.045 555.545 420.682 558.102 420.682C560.568 420.682 561.784 421.989 561.784 424.227V424.318C561.784 425.614 560.466 425.5 557.284 425.909C554.045 426.33 550.511 427.045 550.511 431.045C550.511 434.455 553.148 436.409 556.466 436.409ZM556.875 434C554.739 434 553.193 433.045 553.193 431.182C553.193 429.136 555.057 428.5 557.148 428.227C558.284 428.091 561.33 427.773 561.784 427.227V429.682C561.784 431.864 560.057 434 556.875 434ZM572.043 425.5C572.043 422.455 573.929 420.727 576.497 420.727C578.986 420.727 580.497 422.352 580.497 425.091V436H583.179V424.909C583.179 420.455 580.804 418.318 577.27 418.318C574.634 418.318 572.997 419.5 572.179 421.273H571.952V418.545H569.361V436H572.043V425.5ZM590.761 425.5C590.761 422.455 592.648 420.727 595.216 420.727C597.705 420.727 599.216 422.352 599.216 425.091V436H601.898V424.909C601.898 420.455 599.523 418.318 595.989 418.318C593.352 418.318 591.716 419.5 590.898 421.273H590.67V418.545H588.08V436H590.761V425.5ZM613.889 436.364C618.616 436.364 621.798 432.773 621.798 427.364C621.798 421.909 618.616 418.318 613.889 418.318C609.162 418.318 605.98 421.909 605.98 427.364C605.98 432.773 609.162 436.364 613.889 436.364ZM613.889 433.955C610.298 433.955 608.662 430.864 608.662 427.364C608.662 423.864 610.298 420.727 613.889 420.727C617.48 420.727 619.116 423.864 619.116 427.364C619.116 430.864 617.48 433.955 613.889 433.955ZM42.0455 466.545H38.3182V462.364H35.6364V466.545H33V468.818H35.6364V479.727C35.6364 482.773 38.0909 484.227 40.3636 484.227C41.3636 484.227 42 484.045 42.3636 483.909L41.8182 481.5C41.5909 481.545 41.2273 481.636 40.6364 481.636C39.4545 481.636 38.3182 481.273 38.3182 479V468.818H42.0455V466.545ZM53.2102 484.364C56.7557 484.364 59.3466 482.591 60.1648 479.955L57.5739 479.227C56.892 481.045 55.3125 481.955 53.2102 481.955C50.0625 481.955 47.892 479.92 47.767 476.182H60.4375V475.045C60.4375 468.545 56.5739 466.318 52.9375 466.318C48.2102 466.318 45.0739 470.045 45.0739 475.409C45.0739 480.773 48.1648 484.364 53.2102 484.364ZM47.767 473.864C47.9489 471.148 49.8693 468.727 52.9375 468.727C55.8466 468.727 57.7102 470.909 57.7102 473.864H47.767ZM64.517 484H67.1989V472.955C67.1989 470.591 69.0625 468.864 71.608 468.864C72.3239 468.864 73.0625 469 73.2443 469.045V466.318C72.9375 466.295 72.233 466.273 71.8352 466.273C69.7443 466.273 67.9261 467.455 67.2898 469.182H67.108V466.545H64.517V484ZM76.4233 484H79.1051V473.091C79.1051 470.534 80.9688 468.727 83.0597 468.727C85.0938 468.727 86.5142 470.057 86.5142 472.045V484H89.2415V472.636C89.2415 470.386 90.6506 468.727 93.1051 468.727C95.0142 468.727 96.6506 469.739 96.6506 472.318V484H99.3324V472.318C99.3324 468.216 97.1278 466.318 94.0142 466.318C91.5142 466.318 89.6847 467.466 88.7869 469.273H88.6051C87.7415 467.409 86.2188 466.318 83.9233 466.318C81.6506 466.318 79.9688 467.409 79.2415 469.273H79.0142V466.545H76.4233V484ZM104.236 484H106.918V466.545H104.236V484ZM105.599 463.636C106.645 463.636 107.509 462.818 107.509 461.818C107.509 460.818 106.645 460 105.599 460C104.554 460 103.69 460.818 103.69 461.818C103.69 462.818 104.554 463.636 105.599 463.636ZM114.511 473.5C114.511 470.455 116.398 468.727 118.966 468.727C121.455 468.727 122.966 470.352 122.966 473.091V484H125.648V472.909C125.648 468.455 123.273 466.318 119.739 466.318C117.102 466.318 115.466 467.5 114.648 469.273H114.42V466.545H111.83V484H114.511V473.5ZM135.685 484.409C138.73 484.409 140.321 482.773 140.866 481.636H141.003V484H143.685V472.5C143.685 466.955 139.457 466.318 137.23 466.318C134.594 466.318 131.594 467.227 130.23 470.409L132.776 471.318C133.366 470.045 134.764 468.682 137.321 468.682C139.787 468.682 141.003 469.989 141.003 472.227V472.318C141.003 473.614 139.685 473.5 136.503 473.909C133.264 474.33 129.73 475.045 129.73 479.045C129.73 482.455 132.366 484.409 135.685 484.409ZM136.094 482C133.957 482 132.412 481.045 132.412 479.182C132.412 477.136 134.276 476.5 136.366 476.227C137.503 476.091 140.548 475.773 141.003 475.227V477.682C141.003 479.864 139.276 482 136.094 482ZM156.17 466.545H152.443V462.364H149.761V466.545H147.125V468.818H149.761V479.727C149.761 482.773 152.216 484.227 154.489 484.227C155.489 484.227 156.125 484.045 156.489 483.909L155.943 481.5C155.716 481.545 155.352 481.636 154.761 481.636C153.58 481.636 152.443 481.273 152.443 479V468.818H156.17V466.545ZM167.335 484.364C170.881 484.364 173.472 482.591 174.29 479.955L171.699 479.227C171.017 481.045 169.438 481.955 167.335 481.955C164.188 481.955 162.017 479.92 161.892 476.182H174.562V475.045C174.562 468.545 170.699 466.318 167.062 466.318C162.335 466.318 159.199 470.045 159.199 475.409C159.199 480.773 162.29 484.364 167.335 484.364ZM161.892 473.864C162.074 471.148 163.994 468.727 167.062 468.727C169.972 468.727 171.835 470.909 171.835 473.864H161.892ZM180.597 484.182C181.722 484.182 182.642 483.261 182.642 482.136C182.642 481.011 181.722 480.091 180.597 480.091C179.472 480.091 178.551 481.011 178.551 482.136C178.551 483.261 179.472 484.182 180.597 484.182Z" fill="#232323"/>
<path id="DATI PERSONALI" d="M131.26 142.219H137.166C136.182 135.937 130.744 131.562 123.666 131.562C115.291 131.562 109.01 137.719 109.01 148.031C109.01 158.156 115.01 164.437 123.838 164.437C131.76 164.437 137.432 159.344 137.432 151.094V147.25H124.447V151.781H131.822C131.729 156.344 128.682 159.234 123.869 159.234C118.51 159.234 114.838 155.219 114.838 147.969C114.838 140.766 118.572 136.766 123.744 136.766C127.604 136.766 130.229 138.828 131.26 142.219ZM153.412 164.469C159.006 164.469 162.85 161.734 163.85 157.562L158.568 156.969C157.803 159 155.928 160.062 153.49 160.062C149.834 160.062 147.412 157.656 147.365 153.547H164.084V151.812C164.084 143.391 159.021 139.688 153.115 139.688C146.24 139.688 141.756 144.734 141.756 152.141C141.756 159.672 146.178 164.469 153.412 164.469ZM147.381 149.734C147.553 146.672 149.818 144.094 153.193 144.094C156.443 144.094 158.631 146.469 158.662 149.734H147.381ZM187.838 146.344C187.057 142.281 183.807 139.688 178.182 139.688C172.4 139.688 168.463 142.531 168.479 146.969C168.463 150.469 170.619 152.781 175.229 153.734L179.322 154.594C181.525 155.078 182.557 155.969 182.557 157.328C182.557 158.969 180.775 160.203 178.088 160.203C175.494 160.203 173.807 159.078 173.322 156.922L167.807 157.453C168.51 161.859 172.213 164.469 178.104 164.469C184.104 164.469 188.338 161.359 188.354 156.812C188.338 153.391 186.135 151.297 181.604 150.312L177.51 149.438C175.072 148.891 174.104 148.047 174.119 146.656C174.104 145.031 175.9 143.906 178.26 143.906C180.869 143.906 182.244 145.328 182.682 146.906L187.838 146.344ZM205.002 140H200.268V134.25H194.611V140H191.205V144.375H194.611V157.719C194.58 162.234 197.861 164.453 202.111 164.328C203.721 164.281 204.83 163.969 205.439 163.766L204.486 159.344C204.174 159.422 203.533 159.562 202.83 159.562C201.408 159.562 200.268 159.062 200.268 156.781V144.375H205.002V140ZM209.732 164H215.389V140H209.732V164ZM212.576 136.594C214.373 136.594 215.842 135.219 215.842 133.531C215.842 131.828 214.373 130.453 212.576 130.453C210.764 130.453 209.295 131.828 209.295 133.531C209.295 135.219 210.764 136.594 212.576 136.594ZM231.674 164.469C238.705 164.469 243.174 159.516 243.174 152.094C243.174 144.656 238.705 139.688 231.674 139.688C224.643 139.688 220.174 144.656 220.174 152.094C220.174 159.516 224.643 164.469 231.674 164.469ZM231.705 159.937C227.814 159.937 225.908 156.469 225.908 152.078C225.908 147.687 227.814 144.172 231.705 144.172C235.533 144.172 237.439 147.687 237.439 152.078C237.439 156.469 235.533 159.937 231.705 159.937ZM253.631 149.937C253.631 146.469 255.725 144.469 258.709 144.469C261.631 144.469 263.381 146.391 263.381 149.594V164H269.037V148.719C269.053 142.969 265.771 139.688 260.818 139.688C257.225 139.688 254.756 141.406 253.662 144.078H253.381V140H247.975V164H253.631V149.937ZM285.412 164.469C291.006 164.469 294.85 161.734 295.85 157.562L290.568 156.969C289.803 159 287.928 160.062 285.49 160.062C281.834 160.062 279.412 157.656 279.365 153.547H296.084V151.812C296.084 143.391 291.021 139.688 285.115 139.688C278.24 139.688 273.756 144.734 273.756 152.141C273.756 159.672 278.178 164.469 285.412 164.469ZM279.381 149.734C279.553 146.672 281.818 144.094 285.193 144.094C288.443 144.094 290.631 146.469 290.662 149.734H279.381ZM329.424 140.797H335.002C334.893 135.391 330.283 131.562 323.471 131.562C316.752 131.562 311.705 135.344 311.721 141C311.721 145.594 314.986 148.234 320.252 149.594L323.893 150.531C327.346 151.406 329.627 152.484 329.643 154.969C329.627 157.703 327.033 159.531 323.252 159.531C319.627 159.531 316.814 157.906 316.58 154.547H310.877C311.111 160.906 315.846 164.484 323.299 164.484C330.971 164.484 335.424 160.656 335.439 155.016C335.424 149.469 330.846 146.937 326.033 145.797L323.033 145.047C320.408 144.422 317.564 143.312 317.596 140.641C317.611 138.234 319.768 136.469 323.393 136.469C326.846 136.469 329.127 138.078 329.424 140.797ZM351.451 164C361.201 164 366.982 157.969 366.982 147.969C366.982 138 361.201 132 351.67 132H340.607V164H351.451ZM346.404 158.984V137.016H351.342C357.842 137.016 361.232 140.641 361.232 147.969C361.232 155.328 357.842 158.984 351.17 158.984H346.404ZM383.334 164C393.084 164 398.865 157.969 398.865 147.969C398.865 138 393.084 132 383.553 132H372.49V164H383.334ZM378.287 158.984V137.016H383.225C389.725 137.016 393.115 140.641 393.115 147.969C393.115 155.328 389.725 158.984 383.053 158.984H378.287Z" fill="#232323"/>
<g id="arrow ">
<path id="arrow / short_right" d="M74.666 148C74.666 146.527 73.4721 145.333 71.9993 145.333L42.2127 145.333L49.8833 137.641C50.9198 136.602 50.9187 134.919 49.8807 133.881C48.8416 132.842 47.1571 132.842 46.118 133.881L31.9993 148L46.118 162.119C47.1571 163.158 48.8416 163.158 49.8807 162.119C50.9186 161.081 50.9198 159.398 49.8833 158.359L42.2127 150.667L71.9993 150.667C73.4721 150.667 74.666 149.473 74.666 148Z" fill="#232323"/>
</g>
<path id="Anagrafica" d="M48.8111 243.016H53.375C53.2855 238.592 49.5142 235.46 43.9403 235.46C38.4432 235.46 34.3139 238.554 34.3267 243.182C34.3267 246.94 36.9986 249.101 41.3068 250.213L44.2855 250.98C47.1108 251.696 48.9773 252.578 48.9901 254.611C48.9773 256.848 46.8551 258.344 43.7614 258.344C40.7955 258.344 38.4943 257.014 38.3026 254.266H33.6364C33.8281 259.469 37.7017 262.396 43.7997 262.396C50.0767 262.396 53.7202 259.264 53.733 254.649C53.7202 250.111 49.9744 248.04 46.0369 247.107L43.5824 246.493C41.4347 245.982 39.108 245.074 39.1335 242.888C39.1463 240.919 40.9105 239.474 43.8764 239.474C46.7017 239.474 48.5682 240.791 48.8111 243.016ZM66.8335 262C74.8107 262 79.5408 257.065 79.5408 248.884C79.5408 240.727 74.8107 235.818 67.0124 235.818H57.9613V262H66.8335ZM62.7042 257.896V239.922H66.744C72.0621 239.922 74.8363 242.888 74.8363 248.884C74.8363 254.905 72.0621 257.896 66.6033 257.896H62.7042ZM92.9194 262C100.897 262 105.627 257.065 105.627 248.884C105.627 240.727 100.897 235.818 93.0984 235.818H84.0472V262H92.9194ZM88.7901 257.896V239.922H92.8299C98.1481 239.922 100.922 242.888 100.922 248.884C100.922 254.905 98.1481 257.896 92.6893 257.896H88.7901ZM118.858 262H123.486V242.364H118.858V262ZM121.185 239.577C122.655 239.577 123.857 238.452 123.857 237.071C123.857 235.678 122.655 234.553 121.185 234.553C119.702 234.553 118.5 235.678 118.5 237.071C118.5 238.452 119.702 239.577 121.185 239.577ZM132.873 250.494C132.873 247.656 134.586 246.02 137.028 246.02C139.418 246.02 140.85 247.592 140.85 250.213V262H145.478V249.497C145.491 244.793 142.806 242.108 138.754 242.108C135.813 242.108 133.793 243.514 132.898 245.7H132.668V242.364H128.245V262H132.873V250.494ZM169.058 242.364H164.98V240.817C164.98 239.283 165.619 238.426 167.345 238.426C168.074 238.426 168.688 238.592 169.071 238.707L170.004 235.128C169.403 234.923 168.087 234.591 166.489 234.591C163.075 234.591 160.352 236.547 160.352 240.51V242.364H157.45V245.943H160.352V262H164.98V245.943H169.058V242.364ZM180.637 262.384C185.214 262.384 188.359 260.146 189.177 256.733L184.856 256.247C184.23 257.909 182.696 258.778 180.701 258.778C177.71 258.778 175.728 256.81 175.69 253.447H189.369V252.028C189.369 245.138 185.227 242.108 180.395 242.108C174.77 242.108 171.1 246.237 171.1 252.297C171.1 258.459 174.718 262.384 180.637 262.384ZM175.703 250.328C175.843 247.822 177.697 245.713 180.458 245.713C183.118 245.713 184.907 247.656 184.933 250.328H175.703ZM208.804 247.554C208.165 244.23 205.506 242.108 200.903 242.108C196.173 242.108 192.952 244.435 192.964 248.065C192.952 250.929 194.716 252.821 198.487 253.601L201.837 254.304C203.639 254.7 204.483 255.429 204.483 256.541C204.483 257.884 203.026 258.893 200.827 258.893C198.705 258.893 197.324 257.973 196.928 256.209L192.415 256.643C192.99 260.249 196.02 262.384 200.839 262.384C205.749 262.384 209.213 259.839 209.226 256.119C209.213 253.32 207.411 251.607 203.703 250.801L200.354 250.085C198.359 249.638 197.567 248.947 197.58 247.81C197.567 246.48 199.037 245.56 200.967 245.56C203.102 245.56 204.227 246.723 204.585 248.014L208.804 247.554ZM221.735 262.384C226.312 262.384 229.457 260.146 230.275 256.733L225.954 256.247C225.327 257.909 223.793 258.778 221.799 258.778C218.808 258.778 216.826 256.81 216.788 253.447H230.467V252.028C230.467 245.138 226.325 242.108 221.492 242.108C215.867 242.108 212.198 246.237 212.198 252.297C212.198 258.459 215.816 262.384 221.735 262.384ZM216.8 250.328C216.941 247.822 218.795 245.713 221.556 245.713C224.215 245.713 226.005 247.656 226.031 250.328H216.8ZM250.598 262.345C253.973 262.345 255.495 260.338 256.223 258.906H256.505V262H261.056V235.818H256.415V245.611H256.223C255.52 244.192 254.076 242.108 250.611 242.108C246.073 242.108 242.506 245.662 242.506 252.207C242.506 258.676 245.971 262.345 250.598 262.345ZM251.89 258.548C248.834 258.548 247.223 255.864 247.223 252.182C247.223 248.526 248.809 245.905 251.89 245.905C254.868 245.905 256.505 248.372 256.505 252.182C256.505 255.991 254.843 258.548 251.89 258.548ZM265.987 262H270.615V242.364H265.987V262ZM268.314 239.577C269.784 239.577 270.986 238.452 270.986 237.071C270.986 235.678 269.784 234.553 268.314 234.553C266.831 234.553 265.629 235.678 265.629 237.071C265.629 238.452 266.831 239.577 268.314 239.577ZM284.304 262H288.931V250.456C288.931 247.963 290.811 246.199 293.355 246.199C294.135 246.199 295.106 246.339 295.502 246.467V242.21C295.081 242.134 294.352 242.082 293.841 242.082C291.591 242.082 289.711 243.361 288.995 245.636H288.791V242.364H284.304V262ZM306.462 262.384C311.038 262.384 314.183 260.146 315.001 256.733L310.68 256.247C310.054 257.909 308.52 258.778 306.526 258.778C303.534 258.778 301.553 256.81 301.514 253.447H315.193V252.028C315.193 245.138 311.051 242.108 306.219 242.108C300.594 242.108 296.925 246.237 296.925 252.297C296.925 258.459 300.543 262.384 306.462 262.384ZM301.527 250.328C301.668 247.822 303.521 245.713 306.283 245.713C308.942 245.713 310.732 247.656 310.757 250.328H301.527ZM336.086 242.364H331.164L326.638 256.95H326.434L321.921 242.364H316.986L323.979 262H329.093L336.086 242.364ZM347.185 262.384C352.938 262.384 356.594 258.331 356.594 252.259C356.594 246.173 352.938 242.108 347.185 242.108C341.433 242.108 337.776 246.173 337.776 252.259C337.776 258.331 341.433 262.384 347.185 262.384ZM347.211 258.676C344.028 258.676 342.468 255.838 342.468 252.246C342.468 248.653 344.028 245.777 347.211 245.777C350.343 245.777 351.903 248.653 351.903 252.246C351.903 255.838 350.343 258.676 347.211 258.676ZM369.088 262.384C374.022 262.384 377.167 259.456 377.5 255.288H373.076C372.68 257.398 371.159 258.612 369.126 258.612C366.237 258.612 364.37 256.196 364.37 252.182C364.37 248.219 366.275 245.841 369.126 245.841C371.35 245.841 372.718 247.273 373.076 249.165H377.5C377.18 244.908 373.856 242.108 369.062 242.108C363.309 242.108 359.679 246.263 359.679 252.259C359.679 258.203 363.22 262.384 369.088 262.384ZM386.95 262.396C390.031 262.396 391.872 260.952 392.716 259.303H392.869V262H397.318V248.858C397.318 243.668 393.087 242.108 389.341 242.108C385.212 242.108 382.041 243.949 381.018 247.528L385.339 248.142C385.8 246.8 387.104 245.649 389.366 245.649C391.514 245.649 392.69 246.749 392.69 248.679V248.756C392.69 250.085 391.297 250.149 387.832 250.52C384.023 250.929 380.379 252.067 380.379 256.49C380.379 260.351 383.205 262.396 386.95 262.396ZM388.152 258.996C386.222 258.996 384.841 258.114 384.841 256.413C384.841 254.636 386.388 253.895 388.459 253.601C389.673 253.435 392.102 253.128 392.703 252.642V254.956C392.703 257.142 390.939 258.996 388.152 258.996ZM401.716 262H417.837V258.165H407.865V257.999L417.504 245.521V242.364H402.048V246.199H411.841V246.365L401.716 259.06V262ZM422.186 262H426.814V242.364H422.186V262ZM424.513 239.577C425.983 239.577 427.185 238.452 427.185 237.071C427.185 235.678 425.983 234.553 424.513 234.553C423.03 234.553 421.828 235.678 421.828 237.071C421.828 238.452 423.03 239.577 424.513 239.577ZM440.138 262.384C445.891 262.384 449.548 258.331 449.548 252.259C449.548 246.173 445.891 242.108 440.138 242.108C434.386 242.108 430.729 246.173 430.729 252.259C430.729 258.331 434.386 262.384 440.138 262.384ZM440.164 258.676C436.981 258.676 435.421 255.838 435.421 252.246C435.421 248.653 436.981 245.777 440.164 245.777C443.296 245.777 444.856 248.653 444.856 252.246C444.856 255.838 443.296 258.676 440.164 258.676ZM458.103 250.494C458.103 247.656 459.816 246.02 462.258 246.02C464.649 246.02 466.081 247.592 466.081 250.213V262H470.708V249.497C470.721 244.793 468.037 242.108 463.984 242.108C461.044 242.108 459.024 243.514 458.129 245.7H457.899V242.364H453.475V262H458.103V250.494ZM484.106 262.384C488.683 262.384 491.828 260.146 492.646 256.733L488.325 256.247C487.699 257.909 486.164 258.778 484.17 258.778C481.179 258.778 479.197 256.81 479.159 253.447H492.838V252.028C492.838 245.138 488.696 242.108 483.863 242.108C478.238 242.108 474.569 246.237 474.569 252.297C474.569 258.459 478.187 262.384 484.106 262.384ZM479.172 250.328C479.312 247.822 481.166 245.713 483.927 245.713C486.586 245.713 488.376 247.656 488.402 250.328H479.172Z" fill="#232323"/>
<g id="TabBar">
<g id="bg" filter="url(#filter0_d_721_7556)">
<path fill-rule="evenodd" clip-rule="evenodd" d="M313.546 1516C328.208 1497.71 350.736 1486 376 1486C401.264 1486 423.792 1497.71 438.454 1516H690C723.137 1516 750 1542.86 750 1576V1720H0V1576C0 1542.86 26.8629 1516 60 1516H313.546Z" fill="white"/>
</g>
<g id="joink">
<g id="bg_2" filter="url(#filter1_d_721_7556)">
<circle cx="376" cy="1566" r="64" fill="#FA683C"/>
</g>
<path id="icon" d="M408.681 1563.58C408.681 1563.58 408.381 1558.54 405.801 1554.52C403.101 1550.32 401.541 1549 401.541 1549C401.541 1549 401.841 1546.24 402.561 1544.38C403.521 1541.92 404.841 1540 404.841 1540C404.841 1540 402.141 1540.9 399.741 1542.04C397.161 1543.24 395.241 1544.38 395.241 1544.38C374.721 1539.16 344.84 1548.22 337.46 1551.28L355.16 1552.96L332.84 1556.92L358.22 1558.36L326 1564.06L356.54 1568.26L338.06 1571.2L361.28 1574.2L332.66 1575.4C332.66 1575.4 362.9 1586.56 373.701 1587.58C381.441 1588.3 385.821 1588.3 395.001 1585.9C403.761 1583.62 410.001 1577.92 410.001 1577.92L414.561 1574.08L415.221 1563.04C415.221 1563.1 411.321 1564.9 408.681 1563.58ZM380.001 1576.9C375.261 1576.9 371.781 1574.74 370.881 1570.18H377.361C377.361 1570.24 377.421 1570.24 377.421 1570.3C377.781 1571.44 378.861 1572.1 380.181 1572.04C382.041 1572.04 383.301 1570.78 383.301 1569.16C383.301 1567.36 382.041 1566.04 380.481 1565.98C379.281 1565.98 377.961 1566.7 377.421 1567.66H371.061L374.001 1554.64H387.981V1559.74H378.861L378.021 1563.04C379.401 1562.08 380.661 1562.02 382.341 1562.02C386.541 1562.02 389.781 1564.54 389.781 1568.92C389.781 1574.92 384.981 1576.9 380.001 1576.9ZM400.761 1557.82C399.801 1557.82 399.021 1557.04 399.021 1556.14C399.021 1555.18 399.801 1554.46 400.761 1554.46C401.721 1554.46 402.501 1555.24 402.501 1556.14C402.501 1557.04 401.721 1557.82 400.761 1557.82Z" fill="white"/>
</g>
<g id="esplora">
<path id="Esplora" d="M44.3076 1624V1608H47.2061V1614.77H54.6201V1608H57.5264V1624H54.6201V1617.2H47.2061V1624H44.3076ZM65.7881 1624.23C64.6162 1624.23 63.6006 1623.98 62.7412 1623.46C61.8818 1622.95 61.2152 1622.22 60.7412 1621.3C60.2725 1620.37 60.0381 1619.29 60.0381 1618.05C60.0381 1616.81 60.2725 1615.72 60.7412 1614.79C61.2152 1613.86 61.8818 1613.13 62.7412 1612.62C63.6006 1612.1 64.6162 1611.84 65.7881 1611.84C66.96 1611.84 67.9756 1612.1 68.835 1612.62C69.6943 1613.13 70.3584 1613.86 70.8271 1614.79C71.3011 1615.72 71.5381 1616.81 71.5381 1618.05C71.5381 1619.29 71.3011 1620.37 70.8271 1621.3C70.3584 1622.22 69.6943 1622.95 68.835 1623.46C67.9756 1623.98 66.96 1624.23 65.7881 1624.23ZM65.8037 1621.97C66.4391 1621.97 66.9704 1621.79 67.3975 1621.45C67.8245 1621.09 68.1423 1620.62 68.3506 1620.02C68.5641 1619.43 68.6709 1618.77 68.6709 1618.04C68.6709 1617.3 68.5641 1616.64 68.3506 1616.05C68.1423 1615.45 67.8245 1614.97 67.3975 1614.62C66.9704 1614.26 66.4391 1614.09 65.8037 1614.09C65.1527 1614.09 64.611 1614.26 64.1787 1614.62C63.7516 1614.97 63.4313 1615.45 63.2178 1616.05C63.0094 1616.64 62.9053 1617.3 62.9053 1618.04C62.9053 1618.77 63.0094 1619.43 63.2178 1620.02C63.4313 1620.62 63.7516 1621.09 64.1787 1621.45C64.611 1621.79 65.1527 1621.97 65.8037 1621.97ZM73.9385 1624V1612H76.6416V1614.04H76.7822C77.0322 1613.35 77.4463 1612.82 78.0244 1612.43C78.6025 1612.04 79.2926 1611.84 80.0947 1611.84C80.9072 1611.84 81.5921 1612.04 82.1494 1612.44C82.7119 1612.83 83.1077 1613.36 83.3369 1614.04H83.4619C83.7275 1613.37 84.1755 1612.84 84.8057 1612.45C85.4411 1612.04 86.1937 1611.84 87.0635 1611.84C88.1676 1611.84 89.0687 1612.19 89.7666 1612.89C90.4645 1613.59 90.8135 1614.61 90.8135 1615.95V1624H87.9775V1616.38C87.9775 1615.64 87.7796 1615.09 87.3838 1614.75C86.988 1614.4 86.5036 1614.23 85.9307 1614.23C85.2484 1614.23 84.7145 1614.44 84.3291 1614.87C83.9489 1615.29 83.7588 1615.84 83.7588 1616.52V1624H80.9854V1616.27C80.9854 1615.65 80.7979 1615.15 80.4229 1614.78C80.0531 1614.41 79.5687 1614.23 78.9697 1614.23C78.5635 1614.23 78.1937 1614.33 77.8604 1614.54C77.527 1614.74 77.2614 1615.03 77.0635 1615.41C76.8656 1615.78 76.7666 1616.21 76.7666 1616.7V1624H73.9385ZM98.9951 1624.23C97.792 1624.23 96.7529 1623.98 95.8779 1623.48C95.0081 1622.98 94.3389 1622.27 93.8701 1621.34C93.4014 1620.42 93.167 1619.33 93.167 1618.07C93.167 1616.84 93.4014 1615.75 93.8701 1614.82C94.3441 1613.88 95.0055 1613.15 95.8545 1612.63C96.7035 1612.11 97.7008 1611.84 98.8467 1611.84C99.5863 1611.84 100.284 1611.96 100.94 1612.2C101.602 1612.44 102.185 1612.8 102.69 1613.3C103.201 1613.79 103.602 1614.42 103.894 1615.19C104.185 1615.95 104.331 1616.85 104.331 1617.91V1618.77H94.4951V1616.87H101.62C101.615 1616.33 101.498 1615.84 101.269 1615.42C101.039 1614.99 100.719 1614.66 100.308 1614.41C99.9014 1614.17 99.4274 1614.05 98.8857 1614.05C98.3076 1614.05 97.7998 1614.19 97.3623 1614.47C96.9248 1614.74 96.5837 1615.11 96.3389 1615.56C96.0993 1616.01 95.9769 1616.5 95.9717 1617.04V1618.7C95.9717 1619.4 96.0993 1620 96.3545 1620.5C96.6097 1620.99 96.9665 1621.37 97.4248 1621.64C97.8831 1621.9 98.4196 1622.03 99.0342 1622.03C99.4456 1622.03 99.818 1621.97 100.151 1621.86C100.485 1621.74 100.774 1621.57 101.019 1621.34C101.263 1621.11 101.448 1620.82 101.573 1620.48L104.214 1620.78C104.047 1621.48 103.729 1622.09 103.261 1622.61C102.797 1623.12 102.203 1623.53 101.479 1623.81C100.756 1624.09 99.9274 1624.23 98.9951 1624.23Z" fill="#FA683C"/>
<path id="Union" d="M54 1568L52.991 1566.89C52.5324 1567.31 52.3775 1567.96 52.6009 1568.54C52.8244 1569.12 53.3803 1569.5 54 1569.5V1568ZM76 1548L77.009 1546.89C76.4369 1546.37 75.5631 1546.37 74.991 1546.89L76 1548ZM62 1568H63.5C63.5 1567.17 62.8284 1566.5 62 1566.5V1568ZM62 1592H60.5C60.5 1592.83 61.1716 1593.5 62 1593.5V1592ZM72 1592V1593.5C72.8284 1593.5 73.5 1592.83 73.5 1592H72ZM72 1574V1572.5C71.1716 1572.5 70.5 1573.17 70.5 1574H72ZM80 1574H81.5C81.5 1573.17 80.8284 1572.5 80 1572.5V1574ZM80 1592H78.5C78.5 1592.83 79.1716 1593.5 80 1593.5V1592ZM90 1592V1593.5C90.8284 1593.5 91.5 1592.83 91.5 1592H90ZM90 1568V1566.5C89.1716 1566.5 88.5 1567.17 88.5 1568H90ZM98 1568V1569.5C98.6197 1569.5 99.1756 1569.12 99.3991 1568.54C99.6225 1567.96 99.4676 1567.31 99.009 1566.89L98 1568ZM90 1560.73H88.5C88.5 1561.15 88.6783 1561.55 88.991 1561.84L90 1560.73ZM90 1548H91.5C91.5 1547.17 90.8284 1546.5 90 1546.5V1548ZM84 1548V1546.5C83.1716 1546.5 82.5 1547.17 82.5 1548H84ZM84 1555.27L82.991 1556.38C83.4303 1556.78 84.0639 1556.88 84.6068 1556.64C85.1498 1556.4 85.5 1555.87 85.5 1555.27H84ZM55.009 1569.11L77.009 1549.11L74.991 1546.89L52.991 1566.89L55.009 1569.11ZM62 1566.5H54V1569.5H62V1566.5ZM63.5 1592V1568H60.5V1592H63.5ZM72 1590.5H62V1593.5H72V1590.5ZM70.5 1574V1592H73.5V1574H70.5ZM80 1572.5H72V1575.5H80V1572.5ZM81.5 1592V1574H78.5V1592H81.5ZM90 1590.5H80V1593.5H90V1590.5ZM88.5 1568V1592H91.5V1568H88.5ZM98 1566.5H90V1569.5H98V1566.5ZM88.991 1561.84L96.991 1569.11L99.009 1566.89L91.009 1559.62L88.991 1561.84ZM88.5 1548V1560.73H91.5V1548H88.5ZM84 1549.5H90V1546.5H84V1549.5ZM85.5 1555.27V1548H82.5V1555.27H85.5ZM74.991 1549.11L82.991 1556.38L85.009 1554.16L77.009 1546.89L74.991 1549.11Z" fill="#FA683C"/>
</g>
<g id="operativit&#195;&#160;">
<path id="Risparmi" d="M180.643 1616C180.643 1617.72 180.32 1619.2 179.674 1620.43C179.033 1621.65 178.158 1622.59 177.049 1623.24C175.945 1623.89 174.692 1624.22 173.291 1624.22C171.89 1624.22 170.635 1623.89 169.525 1623.24C168.421 1622.59 167.546 1621.65 166.9 1620.42C166.26 1619.19 165.939 1617.72 165.939 1616C165.939 1614.28 166.26 1612.8 166.9 1611.58C167.546 1610.35 168.421 1609.41 169.525 1608.76C170.635 1608.11 171.89 1607.78 173.291 1607.78C174.692 1607.78 175.945 1608.11 177.049 1608.76C178.158 1609.41 179.033 1610.35 179.674 1611.58C180.32 1612.8 180.643 1614.28 180.643 1616ZM177.729 1616C177.729 1614.79 177.538 1613.76 177.158 1612.93C176.783 1612.09 176.262 1611.46 175.596 1611.03C174.929 1610.6 174.161 1610.38 173.291 1610.38C172.421 1610.38 171.653 1610.6 170.986 1611.03C170.32 1611.46 169.796 1612.09 169.416 1612.93C169.041 1613.76 168.854 1614.79 168.854 1616C168.854 1617.21 169.041 1618.24 169.416 1619.08C169.796 1619.91 170.32 1620.54 170.986 1620.98C171.653 1621.4 172.421 1621.62 173.291 1621.62C174.161 1621.62 174.929 1621.4 175.596 1620.98C176.262 1620.54 176.783 1619.91 177.158 1619.08C177.538 1618.24 177.729 1617.21 177.729 1616ZM183.258 1628.5V1612H186.039V1613.98H186.203C186.349 1613.69 186.555 1613.38 186.82 1613.05C187.086 1612.72 187.445 1612.44 187.898 1612.2C188.352 1611.96 188.93 1611.84 189.633 1611.84C190.56 1611.84 191.396 1612.08 192.141 1612.55C192.891 1613.02 193.484 1613.72 193.922 1614.64C194.365 1615.56 194.586 1616.68 194.586 1618.02C194.586 1619.33 194.37 1620.45 193.938 1621.37C193.505 1622.3 192.917 1623 192.172 1623.48C191.427 1623.97 190.583 1624.21 189.641 1624.21C188.953 1624.21 188.383 1624.1 187.93 1623.87C187.477 1623.64 187.112 1623.36 186.836 1623.04C186.565 1622.71 186.354 1622.4 186.203 1622.11H186.086V1628.5H183.258ZM186.031 1618C186.031 1618.78 186.141 1619.46 186.359 1620.04C186.583 1620.62 186.904 1621.08 187.32 1621.41C187.742 1621.73 188.253 1621.89 188.852 1621.89C189.477 1621.89 190 1621.72 190.422 1621.39C190.844 1621.05 191.161 1620.59 191.375 1620.01C191.594 1619.42 191.703 1618.75 191.703 1618C191.703 1617.26 191.596 1616.59 191.383 1616.02C191.169 1615.44 190.852 1614.98 190.43 1614.66C190.008 1614.33 189.482 1614.16 188.852 1614.16C188.247 1614.16 187.734 1614.32 187.313 1614.64C186.891 1614.96 186.57 1615.4 186.352 1615.98C186.138 1616.55 186.031 1617.22 186.031 1618ZM202.32 1624.23C201.117 1624.23 200.078 1623.98 199.203 1623.48C198.333 1622.98 197.664 1622.27 197.195 1621.34C196.727 1620.42 196.492 1619.33 196.492 1618.07C196.492 1616.84 196.727 1615.75 197.195 1614.82C197.669 1613.88 198.331 1613.15 199.18 1612.63C200.029 1612.11 201.026 1611.84 202.172 1611.84C202.911 1611.84 203.609 1611.96 204.266 1612.2C204.927 1612.44 205.51 1612.8 206.016 1613.3C206.526 1613.79 206.927 1614.42 207.219 1615.19C207.51 1615.95 207.656 1616.85 207.656 1617.91V1618.77H197.82V1616.87H204.945C204.94 1616.33 204.823 1615.84 204.594 1615.42C204.365 1614.99 204.044 1614.66 203.633 1614.41C203.227 1614.17 202.753 1614.05 202.211 1614.05C201.633 1614.05 201.125 1614.19 200.688 1614.47C200.25 1614.74 199.909 1615.11 199.664 1615.56C199.424 1616.01 199.302 1616.5 199.297 1617.04V1618.7C199.297 1619.4 199.424 1620 199.68 1620.5C199.935 1620.99 200.292 1621.37 200.75 1621.64C201.208 1621.9 201.745 1622.03 202.359 1622.03C202.771 1622.03 203.143 1621.97 203.477 1621.86C203.81 1621.74 204.099 1621.57 204.344 1621.34C204.589 1621.11 204.773 1620.82 204.898 1620.48L207.539 1620.78C207.372 1621.48 207.055 1622.09 206.586 1622.61C206.122 1623.12 205.529 1623.53 204.805 1623.81C204.081 1624.09 203.253 1624.23 202.32 1624.23ZM210.049 1624V1612H212.791V1614H212.916C213.135 1613.31 213.51 1612.77 214.041 1612.4C214.577 1612.02 215.189 1611.83 215.877 1611.83C216.033 1611.83 216.208 1611.84 216.4 1611.85C216.598 1611.86 216.762 1611.88 216.893 1611.91V1614.51C216.773 1614.47 216.583 1614.43 216.322 1614.4C216.067 1614.36 215.82 1614.34 215.58 1614.34C215.064 1614.34 214.601 1614.46 214.189 1614.68C213.783 1614.9 213.463 1615.2 213.229 1615.59C212.994 1615.98 212.877 1616.43 212.877 1616.95V1624H210.049ZM222.01 1624.24C221.249 1624.24 220.564 1624.11 219.955 1623.84C219.351 1623.56 218.872 1623.15 218.518 1622.62C218.169 1622.08 217.994 1621.42 217.994 1620.63C217.994 1619.96 218.119 1619.4 218.369 1618.95C218.619 1618.51 218.96 1618.16 219.393 1617.89C219.825 1617.62 220.312 1617.42 220.854 1617.29C221.4 1617.15 221.965 1617.05 222.549 1616.98C223.252 1616.91 223.822 1616.85 224.26 1616.79C224.697 1616.73 225.015 1616.63 225.213 1616.51C225.416 1616.38 225.518 1616.18 225.518 1615.91V1615.86C225.518 1615.27 225.343 1614.82 224.994 1614.49C224.645 1614.17 224.143 1614.01 223.486 1614.01C222.794 1614.01 222.244 1614.16 221.838 1614.46C221.437 1614.76 221.166 1615.12 221.025 1615.53L218.385 1615.16C218.593 1614.43 218.937 1613.82 219.416 1613.33C219.895 1612.83 220.481 1612.46 221.174 1612.22C221.867 1611.97 222.632 1611.84 223.471 1611.84C224.049 1611.84 224.624 1611.91 225.197 1612.05C225.77 1612.18 226.294 1612.41 226.768 1612.72C227.242 1613.03 227.622 1613.45 227.908 1613.98C228.2 1614.51 228.346 1615.17 228.346 1615.97V1624H225.627V1622.35H225.533C225.361 1622.68 225.119 1623 224.807 1623.29C224.499 1623.58 224.111 1623.81 223.643 1623.98C223.179 1624.16 222.635 1624.24 222.01 1624.24ZM222.744 1622.16C223.312 1622.16 223.804 1622.05 224.221 1621.83C224.637 1621.6 224.958 1621.3 225.182 1620.92C225.411 1620.55 225.525 1620.14 225.525 1619.7V1618.28C225.437 1618.35 225.286 1618.42 225.072 1618.48C224.864 1618.55 224.63 1618.6 224.369 1618.65C224.109 1618.7 223.851 1618.74 223.596 1618.77C223.34 1618.81 223.119 1618.84 222.932 1618.87C222.51 1618.92 222.132 1619.02 221.799 1619.15C221.465 1619.28 221.202 1619.46 221.01 1619.7C220.817 1619.92 220.721 1620.22 220.721 1620.59C220.721 1621.11 220.911 1621.5 221.291 1621.77C221.671 1622.03 222.156 1622.16 222.744 1622.16ZM237.182 1612V1614.19H230.283V1612H237.182ZM231.986 1609.12H234.814V1620.39C234.814 1620.77 234.872 1621.06 234.986 1621.27C235.106 1621.46 235.262 1621.6 235.455 1621.67C235.648 1621.74 235.861 1621.78 236.096 1621.78C236.273 1621.78 236.434 1621.77 236.58 1621.74C236.731 1621.72 236.846 1621.69 236.924 1621.67L237.4 1623.88C237.249 1623.93 237.033 1623.99 236.752 1624.05C236.476 1624.12 236.137 1624.15 235.736 1624.16C235.028 1624.18 234.39 1624.08 233.822 1623.84C233.255 1623.6 232.804 1623.23 232.471 1622.73C232.143 1622.23 231.981 1621.61 231.986 1620.86V1609.12ZM239.547 1624V1612H242.375V1624H239.547ZM240.969 1610.3C240.521 1610.3 240.135 1610.15 239.812 1609.85C239.49 1609.55 239.328 1609.19 239.328 1608.77C239.328 1608.34 239.49 1607.98 239.812 1607.68C240.135 1607.38 240.521 1607.23 240.969 1607.23C241.422 1607.23 241.807 1607.38 242.125 1607.68C242.448 1607.98 242.609 1608.34 242.609 1608.77C242.609 1609.19 242.448 1609.55 242.125 1609.85C241.807 1610.15 241.422 1610.3 240.969 1610.3ZM256.002 1612L251.729 1624H248.604L244.33 1612H247.346L250.104 1620.91H250.229L252.994 1612H256.002ZM257.959 1624V1612H260.787V1624H257.959ZM259.381 1610.3C258.933 1610.3 258.548 1610.15 258.225 1609.85C257.902 1609.55 257.74 1609.19 257.74 1608.77C257.74 1608.34 257.902 1607.98 258.225 1607.68C258.548 1607.38 258.933 1607.23 259.381 1607.23C259.834 1607.23 260.219 1607.38 260.537 1607.68C260.86 1607.98 261.021 1608.34 261.021 1608.77C261.021 1609.19 260.86 1609.55 260.537 1609.85C260.219 1610.15 259.834 1610.3 259.381 1610.3ZM269.688 1612V1614.19H262.789V1612H269.688ZM264.492 1609.12H267.32V1620.39C267.32 1620.77 267.378 1621.06 267.492 1621.27C267.612 1621.46 267.768 1621.6 267.961 1621.67C268.154 1621.74 268.367 1621.78 268.602 1621.78C268.779 1621.78 268.94 1621.77 269.086 1621.74C269.237 1621.72 269.352 1621.69 269.43 1621.67L269.906 1623.88C269.755 1623.93 269.539 1623.99 269.258 1624.05C268.982 1624.12 268.643 1624.15 268.242 1624.16C267.534 1624.18 266.896 1624.08 266.328 1623.84C265.76 1623.6 265.31 1623.23 264.977 1622.73C264.648 1622.23 264.487 1621.61 264.492 1620.86V1609.12ZM275.506 1624.24C274.745 1624.24 274.061 1624.11 273.451 1623.84C272.847 1623.56 272.368 1623.15 272.014 1622.62C271.665 1622.08 271.49 1621.42 271.49 1620.63C271.49 1619.96 271.615 1619.4 271.865 1618.95C272.115 1618.51 272.456 1618.16 272.889 1617.89C273.321 1617.62 273.808 1617.42 274.35 1617.29C274.896 1617.15 275.462 1617.05 276.045 1616.98C276.748 1616.91 277.318 1616.85 277.756 1616.79C278.193 1616.73 278.511 1616.63 278.709 1616.51C278.912 1616.38 279.014 1616.18 279.014 1615.91V1615.86C279.014 1615.27 278.839 1614.82 278.49 1614.49C278.141 1614.17 277.639 1614.01 276.982 1614.01C276.29 1614.01 275.74 1614.16 275.334 1614.46C274.933 1614.76 274.662 1615.12 274.521 1615.53L271.881 1615.16C272.089 1614.43 272.433 1613.82 272.912 1613.33C273.391 1612.83 273.977 1612.46 274.67 1612.22C275.363 1611.97 276.128 1611.84 276.967 1611.84C277.545 1611.84 278.12 1611.91 278.693 1612.05C279.266 1612.18 279.79 1612.41 280.264 1612.72C280.738 1613.03 281.118 1613.45 281.404 1613.98C281.696 1614.51 281.842 1615.17 281.842 1615.97V1624H279.123V1622.35H279.029C278.857 1622.68 278.615 1623 278.303 1623.29C277.995 1623.58 277.607 1623.81 277.139 1623.98C276.675 1624.16 276.131 1624.24 275.506 1624.24ZM276.24 1622.16C276.808 1622.16 277.3 1622.05 277.717 1621.83C278.133 1621.6 278.454 1621.3 278.678 1620.92C278.907 1620.55 279.021 1620.14 279.021 1619.7V1618.28C278.933 1618.35 278.782 1618.42 278.568 1618.48C278.36 1618.55 278.126 1618.6 277.865 1618.65C277.605 1618.7 277.347 1618.74 277.092 1618.77C276.837 1618.81 276.615 1618.84 276.428 1618.87C276.006 1618.92 275.628 1619.02 275.295 1619.15C274.962 1619.28 274.699 1619.46 274.506 1619.7C274.313 1619.92 274.217 1620.22 274.217 1620.59C274.217 1621.11 274.407 1621.5 274.787 1621.77C275.167 1622.03 275.652 1622.16 276.24 1622.16ZM276.061 1610.42L273.662 1606.85H276.436L278.178 1610.42H276.061Z" fill="#8A8A94"/>
<g id="Group 118">
<g id="Group 108">
<circle id="Ellipse 17" cx="224" cy="1570" r="22" stroke="#8A8A94" stroke-width="1.5" stroke-linejoin="round"/>
<path id="Ellipse 18" d="M232 1561.43C229.878 1559.31 226.972 1558 223.766 1558C217.268 1558 212 1563.37 212 1570C212 1576.63 217.268 1582 223.766 1582C226.972 1582 229.878 1580.69 232 1578.57" stroke="#8A8A94" stroke-width="1.5" stroke-linejoin="round"/>
<line id="Line 2" x1="208" y1="1574.5" x2="226" y2="1574.5" stroke="#8A8A94" stroke-width="1.5" stroke-linejoin="round"/>
</g>
<g id="Group 109">
<circle id="Ellipse 17_2" cx="224" cy="1570" r="22" stroke="#8A8A94" stroke-width="1.5" stroke-linejoin="round"/>
<path id="Ellipse 18_2" d="M232 1561.43C229.878 1559.31 226.972 1558 223.766 1558C217.268 1558 212 1563.37 212 1570C212 1576.63 217.268 1582 223.766 1582C226.972 1582 229.878 1580.69 232 1578.57" stroke="#8A8A94" stroke-width="1.5" stroke-linejoin="round"/>
<line id="Line 1" x1="226" y1="1567.5" x2="208" y2="1567.5" stroke="#8A8A94" stroke-width="1.5" stroke-linejoin="round"/>
<line id="Line 2_2" x1="208" y1="1574.5" x2="226" y2="1574.5" stroke="#8A8A94" stroke-width="1.5" stroke-linejoin="round"/>
</g>
</g>
</g>
<g id="profilo">
<path id="Profilo" d="M642.117 1624V1608H648.117C649.346 1608 650.378 1608.23 651.211 1608.69C652.049 1609.15 652.682 1609.78 653.109 1610.58C653.542 1611.37 653.758 1612.28 653.758 1613.3C653.758 1614.32 653.542 1615.23 653.109 1616.03C652.677 1616.83 652.039 1617.46 651.195 1617.91C650.352 1618.37 649.313 1618.59 648.078 1618.59H644.102V1616.21H647.688C648.406 1616.21 648.995 1616.09 649.453 1615.84C649.911 1615.59 650.25 1615.24 650.469 1614.8C650.693 1614.37 650.805 1613.86 650.805 1613.3C650.805 1612.73 650.693 1612.23 650.469 1611.8C650.25 1611.36 649.909 1611.03 649.445 1610.79C648.987 1610.54 648.396 1610.42 647.672 1610.42H645.016V1624H642.117ZM656.15 1624V1612H658.893V1614H659.018C659.236 1613.31 659.611 1612.77 660.143 1612.4C660.679 1612.02 661.291 1611.83 661.979 1611.83C662.135 1611.83 662.309 1611.84 662.502 1611.85C662.7 1611.86 662.864 1611.88 662.994 1611.91V1614.51C662.874 1614.47 662.684 1614.43 662.424 1614.4C662.169 1614.36 661.921 1614.34 661.682 1614.34C661.166 1614.34 660.702 1614.46 660.291 1614.68C659.885 1614.9 659.564 1615.2 659.33 1615.59C659.096 1615.98 658.979 1616.43 658.979 1616.95V1624H656.15ZM669.613 1624.23C668.441 1624.23 667.426 1623.98 666.566 1623.46C665.707 1622.95 665.04 1622.22 664.566 1621.3C664.098 1620.37 663.863 1619.29 663.863 1618.05C663.863 1616.81 664.098 1615.72 664.566 1614.79C665.04 1613.86 665.707 1613.13 666.566 1612.62C667.426 1612.1 668.441 1611.84 669.613 1611.84C670.785 1611.84 671.801 1612.1 672.66 1612.62C673.52 1613.13 674.184 1613.86 674.652 1614.79C675.126 1615.72 675.363 1616.81 675.363 1618.05C675.363 1619.29 675.126 1620.37 674.652 1621.3C674.184 1622.22 673.52 1622.95 672.66 1623.46C671.801 1623.98 670.785 1624.23 669.613 1624.23ZM669.629 1621.97C670.264 1621.97 670.796 1621.79 671.223 1621.45C671.65 1621.09 671.967 1620.62 672.176 1620.02C672.389 1619.43 672.496 1618.77 672.496 1618.04C672.496 1617.3 672.389 1616.64 672.176 1616.05C671.967 1615.45 671.65 1614.97 671.223 1614.62C670.796 1614.26 670.264 1614.09 669.629 1614.09C668.978 1614.09 668.436 1614.26 668.004 1614.62C667.577 1614.97 667.257 1615.45 667.043 1616.05C666.835 1616.64 666.73 1617.3 666.73 1618.04C666.73 1618.77 666.835 1619.43 667.043 1620.02C667.257 1620.62 667.577 1621.09 668.004 1621.45C668.436 1621.79 668.978 1621.97 669.629 1621.97ZM683.842 1612V1614.19H676.748V1612H683.842ZM678.521 1624V1610.87C678.521 1610.06 678.688 1609.39 679.021 1608.85C679.36 1608.32 679.813 1607.91 680.381 1607.65C680.949 1607.38 681.579 1607.25 682.271 1607.25C682.761 1607.25 683.196 1607.29 683.576 1607.37C683.956 1607.45 684.238 1607.52 684.42 1607.58L683.857 1609.77C683.738 1609.73 683.587 1609.69 683.404 1609.66C683.222 1609.61 683.019 1609.59 682.795 1609.59C682.269 1609.59 681.896 1609.72 681.678 1609.98C681.464 1610.23 681.357 1610.59 681.357 1611.05V1624H678.521ZM686.057 1624V1612H688.885V1624H686.057ZM687.479 1610.3C687.031 1610.3 686.645 1610.15 686.322 1609.85C685.999 1609.55 685.838 1609.19 685.838 1608.77C685.838 1608.34 685.999 1607.98 686.322 1607.68C686.645 1607.38 687.031 1607.23 687.479 1607.23C687.932 1607.23 688.317 1607.38 688.635 1607.68C688.958 1607.98 689.119 1608.34 689.119 1608.77C689.119 1609.19 688.958 1609.55 688.635 1609.85C688.317 1610.15 687.932 1610.3 687.479 1610.3ZM694.621 1608V1624H691.793V1608H694.621ZM702.764 1624.23C701.592 1624.23 700.576 1623.98 699.717 1623.46C698.857 1622.95 698.191 1622.22 697.717 1621.3C697.248 1620.37 697.014 1619.29 697.014 1618.05C697.014 1616.81 697.248 1615.72 697.717 1614.79C698.191 1613.86 698.857 1613.13 699.717 1612.62C700.576 1612.1 701.592 1611.84 702.764 1611.84C703.936 1611.84 704.951 1612.1 705.811 1612.62C706.67 1613.13 707.334 1613.86 707.803 1614.79C708.277 1615.72 708.514 1616.81 708.514 1618.05C708.514 1619.29 708.277 1620.37 707.803 1621.3C707.334 1622.22 706.67 1622.95 705.811 1623.46C704.951 1623.98 703.936 1624.23 702.764 1624.23ZM702.779 1621.97C703.415 1621.97 703.946 1621.79 704.373 1621.45C704.8 1621.09 705.118 1620.62 705.326 1620.02C705.54 1619.43 705.646 1618.77 705.646 1618.04C705.646 1617.3 705.54 1616.64 705.326 1616.05C705.118 1615.45 704.8 1614.97 704.373 1614.62C703.946 1614.26 703.415 1614.09 702.779 1614.09C702.128 1614.09 701.587 1614.26 701.154 1614.62C700.727 1614.97 700.407 1615.45 700.193 1616.05C699.985 1616.64 699.881 1617.3 699.881 1618.04C699.881 1618.77 699.985 1619.43 700.193 1620.02C700.407 1620.62 700.727 1621.09 701.154 1621.45C701.587 1621.79 702.128 1621.97 702.779 1621.97Z" fill="#8A8A94"/>
<g id="Group 120">
<path id="Line 35 (Stroke)" fill-rule="evenodd" clip-rule="evenodd" d="M648 1586C648 1584.9 648.895 1584 650 1584H694C695.105 1584 696 1584.9 696 1586C696 1587.1 695.105 1588 694 1588H650C648.895 1588 648 1587.1 648 1586Z" fill="#8A8A94"/>
<path id="Line 36 (Stroke)" fill-rule="evenodd" clip-rule="evenodd" d="M648 1570C648 1568.9 648.895 1568 650 1568H694C695.105 1568 696 1568.9 696 1570C696 1571.1 695.105 1572 694 1572H650C648.895 1572 648 1571.1 648 1570Z" fill="#8A8A94"/>
<path id="Line 37 (Stroke)" fill-rule="evenodd" clip-rule="evenodd" d="M648 1554C648 1552.9 648.895 1552 650 1552H694C695.105 1552 696 1552.9 696 1554C696 1555.1 695.105 1556 694 1556H650C648.895 1556 648 1555.1 648 1554Z" fill="#8A8A94"/>
</g>
</g>
<g id="profilo_2">
<path id="Profilo_2" d="M477.882 1613.4H474.96C474.877 1612.92 474.723 1612.49 474.499 1612.12C474.275 1611.75 473.996 1611.43 473.663 1611.17C473.33 1610.91 472.95 1610.72 472.522 1610.59C472.101 1610.45 471.645 1610.38 471.155 1610.38C470.285 1610.38 469.515 1610.6 468.843 1611.04C468.171 1611.47 467.645 1612.11 467.265 1612.95C466.884 1613.78 466.694 1614.8 466.694 1616C466.694 1617.22 466.884 1618.26 467.265 1619.09C467.65 1619.93 468.176 1620.56 468.843 1620.98C469.515 1621.41 470.283 1621.62 471.147 1621.62C471.627 1621.62 472.075 1621.55 472.491 1621.43C472.913 1621.3 473.291 1621.11 473.624 1620.86C473.963 1620.61 474.246 1620.3 474.476 1619.94C474.71 1619.57 474.871 1619.16 474.96 1618.69L477.882 1618.7C477.772 1619.46 477.535 1620.18 477.171 1620.84C476.812 1621.51 476.34 1622.1 475.757 1622.61C475.174 1623.11 474.491 1623.51 473.71 1623.8C472.929 1624.08 472.062 1624.22 471.108 1624.22C469.702 1624.22 468.447 1623.89 467.343 1623.24C466.239 1622.59 465.369 1621.65 464.733 1620.42C464.098 1619.19 463.78 1617.72 463.78 1616C463.78 1614.28 464.101 1612.8 464.741 1611.58C465.382 1610.35 466.254 1609.41 467.358 1608.76C468.463 1608.11 469.713 1607.78 471.108 1607.78C471.999 1607.78 472.827 1607.91 473.593 1608.16C474.358 1608.41 475.041 1608.77 475.64 1609.26C476.239 1609.74 476.731 1610.33 477.116 1611.02C477.507 1611.72 477.762 1612.51 477.882 1613.4ZM485.646 1624.23C484.474 1624.23 483.458 1623.98 482.599 1623.46C481.739 1622.95 481.073 1622.22 480.599 1621.3C480.13 1620.37 479.896 1619.29 479.896 1618.05C479.896 1616.81 480.13 1615.72 480.599 1614.79C481.073 1613.86 481.739 1613.13 482.599 1612.62C483.458 1612.1 484.474 1611.84 485.646 1611.84C486.817 1611.84 487.833 1612.1 488.692 1612.62C489.552 1613.13 490.216 1613.86 490.685 1614.79C491.159 1615.72 491.396 1616.81 491.396 1618.05C491.396 1619.29 491.159 1620.37 490.685 1621.3C490.216 1622.22 489.552 1622.95 488.692 1623.46C487.833 1623.98 486.817 1624.23 485.646 1624.23ZM485.661 1621.97C486.297 1621.97 486.828 1621.79 487.255 1621.45C487.682 1621.09 488 1620.62 488.208 1620.02C488.422 1619.43 488.528 1618.77 488.528 1618.04C488.528 1617.3 488.422 1616.64 488.208 1616.05C488 1615.45 487.682 1614.97 487.255 1614.62C486.828 1614.26 486.297 1614.09 485.661 1614.09C485.01 1614.09 484.468 1614.26 484.036 1614.62C483.609 1614.97 483.289 1615.45 483.075 1616.05C482.867 1616.64 482.763 1617.3 482.763 1618.04C482.763 1618.77 482.867 1619.43 483.075 1620.02C483.289 1620.62 483.609 1621.09 484.036 1621.45C484.468 1621.79 485.01 1621.97 485.661 1621.97ZM493.796 1624V1612H496.499V1614.04H496.64C496.89 1613.35 497.304 1612.82 497.882 1612.43C498.46 1612.04 499.15 1611.84 499.952 1611.84C500.765 1611.84 501.45 1612.04 502.007 1612.44C502.569 1612.83 502.965 1613.36 503.194 1614.04H503.319C503.585 1613.37 504.033 1612.84 504.663 1612.45C505.299 1612.04 506.051 1611.84 506.921 1611.84C508.025 1611.84 508.926 1612.19 509.624 1612.89C510.322 1613.59 510.671 1614.61 510.671 1615.95V1624H507.835V1616.38C507.835 1615.64 507.637 1615.09 507.241 1614.75C506.845 1614.4 506.361 1614.23 505.788 1614.23C505.106 1614.23 504.572 1614.44 504.187 1614.87C503.806 1615.29 503.616 1615.84 503.616 1616.52V1624H500.843V1616.27C500.843 1615.65 500.655 1615.15 500.28 1614.78C499.91 1614.41 499.426 1614.23 498.827 1614.23C498.421 1614.23 498.051 1614.33 497.718 1614.54C497.384 1614.74 497.119 1615.03 496.921 1615.41C496.723 1615.78 496.624 1616.21 496.624 1616.7V1624H493.796ZM513.54 1624V1612H516.243V1614.04H516.384C516.634 1613.35 517.048 1612.82 517.626 1612.43C518.204 1612.04 518.894 1611.84 519.696 1611.84C520.509 1611.84 521.194 1612.04 521.751 1612.44C522.313 1612.83 522.709 1613.36 522.938 1614.04H523.063C523.329 1613.37 523.777 1612.84 524.407 1612.45C525.043 1612.04 525.795 1611.84 526.665 1611.84C527.769 1611.84 528.67 1612.19 529.368 1612.89C530.066 1613.59 530.415 1614.61 530.415 1615.95V1624H527.579V1616.38C527.579 1615.64 527.381 1615.09 526.985 1614.75C526.59 1614.4 526.105 1614.23 525.532 1614.23C524.85 1614.23 524.316 1614.44 523.931 1614.87C523.55 1615.29 523.36 1615.84 523.36 1616.52V1624H520.587V1616.27C520.587 1615.65 520.399 1615.15 520.024 1614.78C519.655 1614.41 519.17 1614.23 518.571 1614.23C518.165 1614.23 517.795 1614.33 517.462 1614.54C517.129 1614.74 516.863 1615.03 516.665 1615.41C516.467 1615.78 516.368 1616.21 516.368 1616.7V1624H513.54ZM540.933 1618.95V1612H543.761V1624H541.019V1621.87H540.894C540.623 1622.54 540.177 1623.09 539.558 1623.52C538.943 1623.94 538.185 1624.16 537.284 1624.16C536.498 1624.16 535.802 1623.98 535.198 1623.63C534.599 1623.28 534.131 1622.77 533.792 1622.09C533.453 1621.42 533.284 1620.6 533.284 1619.64V1612H536.112V1619.2C536.112 1619.96 536.321 1620.57 536.737 1621.02C537.154 1621.46 537.701 1621.69 538.378 1621.69C538.795 1621.69 539.198 1621.59 539.589 1621.38C539.979 1621.18 540.3 1620.88 540.55 1620.48C540.805 1620.07 540.933 1619.56 540.933 1618.95ZM549.497 1616.97V1624H546.669V1612H549.372V1614.04H549.513C549.789 1613.37 550.229 1612.83 550.833 1612.44C551.442 1612.04 552.195 1611.84 553.091 1611.84C553.919 1611.84 554.64 1612.02 555.255 1612.37C555.875 1612.73 556.354 1613.24 556.692 1613.91C557.036 1614.59 557.205 1615.4 557.2 1616.36V1624H554.372V1616.8C554.372 1615.99 554.164 1615.37 553.747 1614.91C553.336 1614.46 552.765 1614.23 552.036 1614.23C551.541 1614.23 551.101 1614.34 550.716 1614.56C550.336 1614.78 550.036 1615.09 549.817 1615.49C549.604 1615.9 549.497 1616.39 549.497 1616.97ZM560.075 1624V1612H562.903V1624H560.075ZM561.497 1610.3C561.049 1610.3 560.664 1610.15 560.341 1609.85C560.018 1609.55 559.856 1609.19 559.856 1608.77C559.856 1608.34 560.018 1607.98 560.341 1607.68C560.664 1607.38 561.049 1607.23 561.497 1607.23C561.95 1607.23 562.336 1607.38 562.653 1607.68C562.976 1607.98 563.138 1608.34 563.138 1608.77C563.138 1609.19 562.976 1609.55 562.653 1609.85C562.336 1610.15 561.95 1610.3 561.497 1610.3ZM571.804 1612V1614.19H564.905V1612H571.804ZM566.608 1609.12H569.437V1620.39C569.437 1620.77 569.494 1621.06 569.608 1621.27C569.728 1621.46 569.884 1621.6 570.077 1621.67C570.27 1621.74 570.483 1621.78 570.718 1621.78C570.895 1621.78 571.056 1621.77 571.202 1621.74C571.353 1621.72 571.468 1621.69 571.546 1621.67L572.022 1623.88C571.871 1623.93 571.655 1623.99 571.374 1624.05C571.098 1624.12 570.759 1624.15 570.358 1624.16C569.65 1624.18 569.012 1624.08 568.444 1623.84C567.877 1623.6 567.426 1623.23 567.093 1622.73C566.765 1622.23 566.603 1621.61 566.608 1620.86V1609.12ZM575.927 1628.5C575.541 1628.5 575.185 1628.47 574.856 1628.41C574.534 1628.35 574.276 1628.28 574.083 1628.2L574.739 1626C575.151 1626.12 575.518 1626.18 575.841 1626.17C576.164 1626.17 576.448 1626.07 576.692 1625.87C576.942 1625.67 577.153 1625.35 577.325 1624.9L577.567 1624.25L573.216 1612H576.216L578.981 1621.06H579.106L581.88 1612H584.888L580.083 1625.45C579.859 1626.09 579.562 1626.63 579.192 1627.09C578.823 1627.54 578.369 1627.89 577.833 1628.13C577.302 1628.38 576.666 1628.5 575.927 1628.5Z" fill="#8A8A94"/>
<g id="Group 119">
<path id="Ellipse 15" d="M518.364 1549.5C522.982 1549.5 526.682 1553.18 526.683 1557.66C526.683 1562.14 522.982 1565.82 518.364 1565.82C513.747 1565.82 510.046 1562.14 510.046 1557.66C510.046 1553.18 513.747 1549.5 518.364 1549.5Z" stroke="#8A8A94" stroke-width="1.5"/>
<path id="Ellipse 19" d="M517.273 1573.11C520.912 1573.11 524.322 1575.08 526.873 1578.48C529.183 1581.56 530.728 1585.77 531 1590.5H503.547C503.819 1585.77 505.364 1581.56 507.674 1578.48C510.225 1575.08 513.635 1573.11 517.273 1573.11Z" stroke="#8A8A94" stroke-width="1.5"/>
<path id="Ellipse 20" d="M536.908 1551.65C539.718 1551.65 541.955 1553.88 541.955 1556.59C541.955 1559.29 539.718 1561.53 536.908 1561.53C534.099 1561.52 531.863 1559.29 531.863 1556.59C531.863 1553.88 534.099 1551.65 536.908 1551.65Z" stroke="#8A8A94" stroke-width="1.5"/>
<path id="Subtract" fill-rule="evenodd" clip-rule="evenodd" d="M528.1 1577.62C528.62 1576.32 529.278 1575.16 530.037 1574.16C531.971 1571.63 534.428 1570.32 536.908 1570.32C539.388 1570.32 541.845 1571.63 543.779 1574.16C545.232 1576.07 546.317 1578.6 546.769 1581.49H536.908H530.363C530.793 1582.44 531.166 1583.44 531.476 1584.49H536.908H546.999H549.999C549.999 1583.46 549.931 1582.46 549.8 1581.49C548.718 1573.43 543.358 1567.32 536.908 1567.32C532.294 1567.32 528.238 1570.45 525.906 1575.18C526.694 1575.9 527.428 1576.72 528.1 1577.62Z" fill="#8A8A94"/>
</g>
</g>
<g id="iPhone X/Home Indicator/Home Indicator - On Dark">
<rect id="Rectangle 24" x="242" y="1692" width="268" height="10" rx="2.5" fill="black"/>
</g>
</g>
<g id="iPhone X (or newer)" clip-path="url(#clip1_721_7556)">
<g id="Right Side">
<g id="Battery">
<path id="Rectangle" opacity="0.35" d="M677.334 35.6665H710.666C713.059 35.6665 715 37.6073 715 40.0005V52.0005C715 54.3934 713.059 56.3325 710.666 56.3325H677.334C674.941 56.3325 673 54.3934 673 52.0005V40.0005L673.021 39.5571C673.243 37.3718 675.09 35.6665 677.334 35.6665Z" stroke="black"/>
<path id="Combined Shape" opacity="0.4" d="M718 42V50C719.609 49.3224 720.656 47.7463 720.656 46C720.656 44.2537 719.609 42.6776 718 42Z" fill="black"/>
<path id="Rectangle_2" d="M676 41.3332C676 39.8604 677.194 38.6665 678.667 38.6665H709.333C710.806 38.6665 712 39.8604 712 41.3332V50.6665C712 52.1393 710.806 53.3332 709.333 53.3332H678.667C677.194 53.3332 676 52.1393 676 50.6665V41.3332Z" fill="black"/>
</g>
<path id="Wifi" fill-rule="evenodd" clip-rule="evenodd" d="M646.66 39.2158C651.092 39.216 655.354 40.9189 658.566 43.9725C658.808 44.2082 659.194 44.2052 659.433 43.9658L661.745 41.6325C661.865 41.511 661.932 41.3465 661.931 41.1753C661.93 41.0042 661.861 40.8405 661.739 40.7205C653.309 32.6414 640.009 32.6414 631.579 40.7205C631.457 40.8404 631.388 41.004 631.387 41.1752C631.386 41.3464 631.453 41.5109 631.573 41.6325L633.886 43.9658C634.124 44.2056 634.511 44.2086 634.753 43.9725C637.965 40.9187 642.228 39.2158 646.66 39.2158ZM646.66 46.8071C649.095 46.807 651.443 47.712 653.248 49.3465C653.492 49.5784 653.877 49.5734 654.115 49.3351L656.424 47.0018C656.546 46.8794 656.613 46.7134 656.611 46.5408C656.61 46.3683 656.539 46.2037 656.415 46.0838C650.918 40.971 642.406 40.971 636.91 46.0838C636.786 46.2037 636.715 46.3684 636.713 46.541C636.712 46.7136 636.779 46.8796 636.901 47.0018L639.21 49.3351C639.448 49.5734 639.832 49.5784 640.077 49.3465C641.88 47.7131 644.227 46.8081 646.66 46.8071ZM651.286 51.9148C651.289 52.0878 651.221 52.2546 651.098 52.3758L647.103 56.4071C646.986 56.5256 646.827 56.5923 646.66 56.5923C646.493 56.5923 646.334 56.5256 646.217 56.4071L642.221 52.3758C642.098 52.2545 642.03 52.0876 642.034 51.9146C642.037 51.7416 642.112 51.5778 642.241 51.4618C644.792 49.304 648.528 49.304 651.079 51.4618C651.208 51.5779 651.282 51.7417 651.286 51.9148Z" fill="black"/>
<path id="Mobile Signal" fill-rule="evenodd" clip-rule="evenodd" d="M619.333 35.333H617.333C616.228 35.333 615.333 36.2284 615.333 37.333V54.6663C615.333 55.7709 616.228 56.6663 617.333 56.6663H619.333C620.438 56.6663 621.333 55.7709 621.333 54.6663V37.333C621.333 36.2284 620.438 35.333 619.333 35.333ZM608 39.9997H610C611.104 39.9997 612 40.8951 612 41.9997V54.6663C612 55.7709 611.104 56.6663 610 56.6663H608C606.895 56.6663 606 55.7709 606 54.6663V41.9997C606 40.8951 606.895 39.9997 608 39.9997ZM600.666 44.6663H598.666C597.562 44.6663 596.666 45.5618 596.666 46.6663V54.6663C596.666 55.7709 597.562 56.6663 598.666 56.6663H600.666C601.771 56.6663 602.666 55.7709 602.666 54.6663V46.6663C602.666 45.5618 601.771 44.6663 600.666 44.6663ZM591.333 48.6663H589.333C588.228 48.6663 587.333 49.5618 587.333 50.6663V54.6663C587.333 55.7709 588.228 56.6663 589.333 56.6663H591.333C592.438 56.6663 593.333 55.7709 593.333 54.6663V50.6663C593.333 49.5618 592.438 48.6663 591.333 48.6663Z" fill="black"/>
</g>
<g id="Left Side">
<g id="Time">
<g id="9:41">
<path d="M74.6416 56.5127C80.0176 56.5127 83.2109 52.3086 83.2109 45.1895C83.2109 42.5088 82.6982 40.2529 81.7168 38.5098C80.2959 35.7998 77.8496 34.335 74.7588 34.335C70.1592 34.335 66.9072 37.4258 66.9072 41.7617C66.9072 45.834 69.8369 48.793 73.8652 48.793C76.3408 48.793 78.3477 47.6357 79.3438 45.6289H79.3877C79.3877 45.6289 79.4463 45.6289 79.4609 45.6289C79.4902 45.6289 79.5928 45.6289 79.5928 45.6289C79.5928 50.4629 77.7617 53.3486 74.6709 53.3486C72.8545 53.3486 71.4482 52.3525 70.9648 50.7559H67.2002C67.8301 54.2275 70.7744 56.5127 74.6416 56.5127ZM74.7734 45.79C72.3418 45.79 70.6133 44.0615 70.6133 41.6445C70.6133 39.2861 72.4297 37.4844 74.7881 37.4844C77.1465 37.4844 78.9629 39.3154 78.9629 41.7031C78.9629 44.0615 77.1904 45.79 74.7734 45.79Z" fill="black"/>
<path d="M89.3932 56.3076C90.7848 56.3076 91.7369 55.3115 91.7369 53.9932C91.7369 52.6602 90.7848 51.6787 89.3932 51.6787C88.0162 51.6787 87.0494 52.6602 87.0494 53.9932C87.0494 55.3115 88.0162 56.3076 89.3932 56.3076ZM89.3932 45.3213C90.7848 45.3213 91.7369 44.3398 91.7369 43.0215C91.7369 41.6885 90.7848 40.707 89.3932 40.707C88.0162 40.707 87.0494 41.6885 87.0494 43.0215C87.0494 44.3398 88.0162 45.3213 89.3932 45.3213Z" fill="black"/>
<path d="M105.448 56H109.067V52.0596H111.923V48.8662H109.067V34.8623H103.735C99.9992 40.4873 97.0256 45.1895 95.1213 48.6904V52.0596H105.448V56ZM98.6223 48.7344C101.083 44.3984 103.28 40.9268 105.302 37.9385H105.507V48.9541H98.6223V48.7344Z" fill="black"/>
<path d="M119.98 56H123.76V34.8623H119.995L114.472 38.7295V42.3623L119.731 38.6709H119.98V56Z" fill="black"/>
</g>
</g>
</g>
</g>
</g>
<defs>
<filter id="filter0_d_721_7556" x="-32" y="1446" width="814" height="298" filterUnits="userSpaceOnUse" color-interpolation-filters="sRGB">
<feFlood flood-opacity="0" result="BackgroundImageFix"/>
<feColorMatrix in="SourceAlpha" type="matrix" values="0 0 0 0 0 0 0 0 0 0 0 0 0 0 0 0 0 0 127 0" result="hardAlpha"/>
<feOffset dy="-4"/>
<feGaussianBlur stdDeviation="8"/>
<feColorMatrix type="matrix" values="0 0 0 0 0.137255 0 0 0 0 0.137255 0 0 0 0 0.137255 0 0 0 0.06 0"/>
<feBlend mode="normal" in2="BackgroundImageFix" result="effect1_dropShadow_721_7556"/>
<feBlend mode="normal" in="SourceGraphic" in2="effect1_dropShadow_721_7556" result="shape"/>
</filter>
<filter id="filter1_d_721_7556" x="280" y="1474" width="192" height="192" filterUnits="userSpaceOnUse" color-interpolation-filters="sRGB">
<feFlood flood-opacity="0" result="BackgroundImageFix"/>
<feColorMatrix in="SourceAlpha" type="matrix" values="0 0 0 0 0 0 0 0 0 0 0 0 0 0 0 0 0 0 127 0" result="hardAlpha"/>
<feOffset dy="2"/>
<feGaussianBlur stdDeviation="8"/>
<feColorMatrix type="matrix" values="0 0 0 0 0.137255 0 0 0 0 0.137255 0 0 0 0 0.137255 0 0 0 0.08 0"/>
<feBlend mode="normal" in2="BackgroundImageFix" result="effect1_dropShadow_721_7556"/>
<feBlend mode="normal" in="SourceGraphic" in2="effect1_dropShadow_721_7556" result="shape"/>
</filter>
<clipPath id="clip0_721_7556">
<rect width="375" height="860" fill="white" transform="scale(2)"/>
</clipPath>
<clipPath id="clip1_721_7556">
<rect width="375" height="44" fill="white" transform="scale(2)"/>
</clipPath>
</defs>
</svg>
